<svg width="13" height="13" viewBox="0 0 13 13" xmlns="http://www.w3.org/2000/svg"><g fill="none" fill-rule="evenodd"><path fill="#F5F5F5" d="M-45-177h384v673H-45z"/><path d="M-5-5h24v24H-5z"/><path d="M10.917 6.25h-.584V3.333a.584.584 0 00-.583-.583H6.833v-.583a1.166 1.166 0 10-2.333 0v.583H1.583A.584.584 0 001 3.333V6.25h.583a1.166 1.166 0 110 2.333H1V11.5c0 .322.261.583.583.583H4.5V11.5a1.166 1.166 0 112.333 0v.583H9.75a.584.584 0 00.583-.583V8.583h.584a1.166 1.166 0 100-2.333z" stroke="#343A40" stroke-width="1.167"/></g></svg>