<svg width="11" height="11" viewBox="0 0 11 11" xmlns="http://www.w3.org/2000/svg"><g fill="none" fill-rule="evenodd"><path fill="#F5F5F5" d="M-47-101h384v673H-47z"/><path d="M-7-7h24v24H-7z"/><path d="M1.167 4.667h8.166m-4.083-3.5v7" stroke="#343A40" stroke-width="1.167" stroke-linecap="round" stroke-linejoin="round"/><path d="M5.25 0a1.167 1.167 0 100 2.333A1.167 1.167 0 005.25 0zm0 7a1.167 1.167 0 100 2.333A1.167 1.167 0 005.25 7z" fill="#343A40" fill-rule="nonzero"/><path stroke="#343A40" stroke-width="1.167" stroke-linecap="round" stroke-linejoin="round" d="M1.167 1.167v7"/><path d="M1.167 0a1.167 1.167 0 100 2.333 1.167 1.167 0 000-2.333zm0 7a1.167 1.167 0 100 2.333 1.167 1.167 0 000-2.333z" fill="#343A40" fill-rule="nonzero"/><path stroke="#343A40" stroke-width="1.167" stroke-linecap="round" stroke-linejoin="round" d="M9.333 1.167v8.166"/><path d="M9.333 0a1.167 1.167 0 100 2.333 1.167 1.167 0 000-2.333zm0 8.167a1.167 1.167 0 100 2.333 1.167 1.167 0 000-2.333z" fill="#343A40" fill-rule="nonzero"/></g></svg>