<svg width="202" height="90" viewBox="0 0 202 90" fill="none" xmlns="http://www.w3.org/2000/svg">
<path d="M11.7681 43.1931C11.3984 43.8721 10.9614 44.2486 10.1546 44.2486H8.04349C7.36445 44.2486 6.98795 43.8183 7.11569 43.1326C7.24343 42.5073 7.79474 41.5123 8.29225 40.6517L27.608 5.56328C27.9778 4.88424 28.3476 4.44051 29.0333 4.44051H30.5259C31.2049 4.44051 31.4537 4.87752 31.5814 5.56328L38.4727 40.6517C38.661 41.519 38.903 42.514 38.782 43.1326C38.661 43.8116 38.1634 44.2486 37.4844 44.2486H35.6221C34.8758 44.2486 34.506 43.9393 34.3783 43.1931L32.4555 32.3889H17.5501L11.7749 43.1931H11.7681ZM29.5981 16.865C29.3426 15.3187 28.7913 12.5823 28.8451 12.2058C28.9056 11.836 28.8451 11.6478 28.6031 11.6478C28.361 11.6478 28.2938 11.836 28.2265 12.2058C28.1593 12.5756 26.6735 15.3724 25.8667 16.865L19.4729 28.7852H31.7697L29.5981 16.865Z" fill="white"/>
<path d="M44.053 43.072L50.6955 5.62379C50.8232 4.94475 51.3745 4.44723 52.0603 4.44723H54.2991C54.9782 4.44723 55.4152 4.94475 55.2942 5.62379L48.6449 43.072C48.5239 43.7511 47.9659 44.2486 47.2801 44.2486H45.0413C44.3622 44.2486 43.9185 43.7511 44.0462 43.072H44.053Z" fill="white"/>
<path d="M58.7902 43.072L65.4328 5.62379C65.5605 4.94475 66.1118 4.44723 66.7976 4.44723H76.7345C84.9368 4.44723 88.2244 9.10641 86.9806 15.9977C86.1738 20.4686 83.0072 25.9951 76.2369 27.2994C76.8622 27.6759 77.6085 28.7314 78.4153 30.4055L83.3165 40.6517C83.7468 41.519 83.9955 41.8282 84.493 42.0165C85.2393 42.2653 85.4881 42.6955 85.3671 43.2603C85.2393 43.9393 84.7418 44.2553 84.0628 44.2553H81.8912C80.5196 44.2553 79.8406 43.8788 78.348 40.5307L73.0703 28.792C72.64 27.7969 72.4518 27.5482 71.524 27.5482H66.1185L63.3889 43.072C63.2679 43.7511 62.7099 44.2486 62.0241 44.2486H59.7853C59.1062 44.2486 58.6625 43.7511 58.7902 43.072ZM72.0148 23.8168C77.8505 23.8168 81.3264 21.6452 82.3214 15.9977C83.3165 10.404 80.8961 8.17189 75.0537 8.17189H69.5339L66.7976 23.8235H72.0215L72.0148 23.8168Z" fill="white"/>
<path d="M90.3153 27.7364L90.6246 25.8741C90.7456 25.195 91.3709 24.6975 92.0499 24.6975H103.352C104.037 24.6975 104.407 25.195 104.286 25.8741L103.977 27.7364C103.849 28.4155 103.298 28.913 102.612 28.913H91.3104C90.6313 28.913 90.1943 28.4155 90.3153 27.7364Z" fill="white"/>
<path d="M0.634525 69.501C3.64652 52.424 13.0724 48.9481 22.6396 48.9481C27.608 48.9481 30.62 50.1919 31.7092 51.0592C32.4689 51.6845 33.0471 52.303 32.8925 53.1703L31.3394 61.9844C31.1982 62.7912 30.6872 63.2282 29.9342 63.2282C29.5645 63.2282 29.0602 62.9189 28.3879 62.4819C27.1038 61.6751 26.0953 61.0566 23.5472 61.0566C20.9991 61.0566 17.8258 62.1727 16.5282 69.501C15.2306 76.8292 18.0342 77.8848 20.5755 77.8848C23.1169 77.8848 24.3473 77.2663 25.9138 76.4595C26.734 76.0292 27.3525 75.7132 27.7223 75.7132C28.4753 75.7132 28.8316 76.1435 28.6837 76.957L27.1307 85.7778C26.976 86.6451 26.1827 87.2704 25.2078 87.8889C23.8094 88.7629 20.3671 90 15.3987 90C5.83156 90 -2.37747 86.5846 0.6278 69.5077L0.634525 69.501Z" fill="white"/>
<path d="M33.3564 69.4404C36.1263 53.7283 44.6043 48.9481 54.3596 48.9481C64.115 48.9481 70.9054 53.7283 68.1355 69.4404C65.3655 85.1526 56.8741 89.9933 47.1255 89.9933C37.3768 89.9933 30.5931 85.1526 33.3631 69.4404H33.3564ZM52.2351 69.4404C53.7815 60.6801 54.2386 59.1338 52.5646 59.1338C50.8905 59.1338 50.8031 60.6801 49.2567 69.4404C47.7104 78.2008 47.2398 79.8143 48.9206 79.8143C50.6014 79.8143 50.6955 78.1941 52.2418 69.4404H52.2351Z" fill="white"/>
<path d="M71.1945 69.4404C73.9645 53.7283 82.4425 48.9481 92.1978 48.9481C101.953 48.9481 108.744 53.7283 105.974 69.4404C103.204 85.1526 94.7123 89.9933 84.9637 89.9933C75.215 89.9933 68.4313 85.1526 71.2013 69.4404H71.1945ZM90.0666 69.4404C91.6129 60.6801 92.0701 59.1338 90.396 59.1338C88.7219 59.1338 88.6345 60.6801 87.0882 69.4404C85.5419 78.2008 85.0712 79.8143 86.752 79.8143C88.4328 79.8143 88.527 78.1941 90.0733 69.4404H90.0666Z" fill="white"/>
<path d="M133.028 79.5858L131.529 88.1646C131.381 88.8638 130.829 89.3613 130.13 89.3613H108.387C107.735 89.3613 107.291 88.8638 107.439 88.1646C108.085 84.8231 108.636 81.4817 109.187 78.1403C109.234 77.8915 109.288 77.6898 109.335 77.4411C110.633 69.9581 112.226 62.529 113.073 54.9452L113.423 52.3501C113.524 51.5164 113.443 50.7836 114.115 50.1583C114.801 49.5196 115.608 49.607 116.475 49.607H126.103C126.715 49.607 127.784 49.5667 128.08 49.7952C128.268 49.9364 128.449 50.118 128.543 50.3331C128.812 50.9449 128.557 52.1416 128.396 53.0089C128.288 53.5871 128.187 54.1653 128.073 54.7435L127.179 59.6313C126.58 62.8719 126.029 66.0654 125.431 69.2589C124.933 72.1499 124.436 75.0947 123.931 77.9856C123.884 78.1336 123.884 78.2882 123.83 78.4361H132.013C132.712 78.4361 133.162 78.9336 133.008 79.5858H133.028Z" fill="white"/>
<path d="M136.43 33.4847C135.932 34.1705 135.441 34.8899 135.025 35.69C134.682 36.2951 134.379 36.9405 134.077 37.5926C133.431 38.9574 132.974 40.3626 132.631 41.7677C132.443 41.6938 132.248 41.5795 132.06 41.5392C132.019 41.4988 131.945 41.4652 131.905 41.4652C129.323 40.4029 126.547 40.06 124.046 40.6315C122.224 41.008 120.55 41.8484 119.259 43.0653H119.07C119.185 41.9224 119.339 40.7862 119.602 39.6432C119.756 38.7289 119.985 37.8212 120.247 36.9069H120.287C120.704 35.3135 121.276 33.7537 121.961 32.1939C122.647 30.6005 123.481 29.0811 124.395 27.6759C124.698 27.1851 125.229 26.8422 125.841 26.8422C129.451 26.8826 133.324 28.476 136.322 31.2459C136.927 31.8174 136.927 32.8057 136.437 33.4847H136.43ZM146.649 25.6253C145.204 26.1968 143.765 26.9162 142.434 27.7902C141.143 28.5903 140 29.5382 138.938 30.5265C137.304 27.9045 134.984 25.8539 132.403 24.8656C130.614 24.1798 128.792 23.9916 127.044 24.2941L126.856 24.1798C129.175 21.2956 131.945 18.7475 135.213 16.6566C136.658 15.7086 138.178 14.8682 139.697 14.1892C140.228 13.9202 140.874 13.9606 141.371 14.3034C144.41 16.2801 146.763 19.7358 147.752 23.689C147.98 24.5227 147.449 25.3228 146.649 25.6253ZM161.467 23.5747C161.205 24.4084 160.331 24.7916 159.49 24.6034C157.971 24.3009 156.378 24.1126 154.777 24.1126C153.177 24.1126 151.779 24.2672 150.374 24.5294C150.414 21.4502 149.574 18.4517 147.94 16.2128C146.837 14.6934 145.392 13.5168 143.765 12.8311L143.691 12.6428C147.187 11.4663 150.905 10.8544 154.784 10.8544C156.532 10.8544 158.24 11.0091 159.914 11.2377C160.485 11.3116 160.976 11.6948 161.245 12.226C162.691 15.5674 162.805 19.7492 161.474 23.5815L161.467 23.5747ZM173.051 30.9837C172.365 31.5149 171.417 31.3669 170.812 30.7551C169.71 29.6525 168.493 28.6306 167.128 27.7566C165.877 26.9229 164.546 26.2371 163.215 25.706C164.923 23.1579 165.877 20.1997 165.723 17.423C165.608 15.5204 165.037 13.779 164.049 12.2932L164.089 12.105C167.659 13.0193 171.115 14.5388 174.349 16.623C175.828 17.5709 177.199 18.6332 178.45 19.7358C178.907 20.1526 179.136 20.7241 179.021 21.2956C178.45 24.9059 176.251 28.476 173.058 30.9837H173.051ZM189.005 38.6146C188.743 38.8835 188.514 39.1457 188.205 39.3743C185.771 41.6534 182.356 43.1325 178.705 43.4754C177.946 43.5494 177.26 43.0183 177.031 42.2585C176.991 42.1846 176.957 42.1442 176.957 42.0703C176.688 40.6651 176.238 39.26 175.626 37.8885C175.626 37.7742 175.552 37.6599 175.512 37.5456C174.907 36.1404 174.147 34.8496 173.347 33.673C176.157 32.4561 178.551 30.4795 179.956 28.086C180.87 26.4523 181.361 24.6639 181.321 22.8823L181.475 22.7276C183.983 25.464 186.034 28.6172 187.627 32.1468C188.118 33.2898 188.575 34.426 188.918 35.5689C189.072 36.0597 189.22 36.5169 189.335 36.9741C189.489 37.5456 189.375 38.1507 188.992 38.6078L189.005 38.6146ZM201.161 36.7186C200.63 33.9823 199.91 31.2863 198.922 28.7046C198.008 26.2371 196.871 23.8773 195.5 21.6385C194.209 19.5139 192.73 17.497 191.096 15.601C189.503 13.779 187.714 12.0713 185.818 10.5519C183.956 9.03246 181.946 7.66765 179.855 6.48436C177.764 5.3078 175.599 4.27915 173.32 3.40514C171.081 2.53112 168.762 1.84535 166.409 1.31422C164.055 0.783085 161.662 0.399864 159.228 0.177998C156.835 -0.0102519 154.401 -0.0505925 151.974 0.063702C149.54 0.177996 147.147 0.440203 144.76 0.89738C142.407 1.35456 140.047 1.95965 137.768 2.71937C135.489 3.47909 133.25 4.42706 131.085 5.52967C128.96 6.63227 126.91 7.88279 124.967 9.28794C122.99 10.7334 121.168 12.2865 119.46 14.0345C117.753 15.7826 116.193 17.7188 114.788 19.7358C113.342 21.8603 112.132 24.1059 111.063 26.4187C109.961 28.8861 109.127 31.4342 108.481 34.0562C108.139 35.421 107.836 36.8262 107.648 38.2381C107.379 39.9457 107.117 41.8081 108.334 43.2132C108.407 43.2536 108.448 43.3275 108.488 43.3679C108.602 43.4418 108.676 43.5561 108.791 43.6368C110.008 44.5848 111.446 44.3562 112.892 44.3562H122.997C125.431 43.5561 128.16 43.3679 130.823 43.825C131.239 43.899 131.542 44.094 131.771 44.3562H133.895C134.487 44.3562 135.112 44.4906 135.684 44.3158C136.484 44.0738 136.544 43.3074 136.719 42.6014C137.169 40.7727 137.761 38.9709 138.608 37.2901C140.396 33.6058 143.207 31.2526 146.891 29.5786C148.256 28.9735 149.661 28.4424 151.147 28.1734C152.626 27.9045 154.112 27.8305 155.551 27.9448C157.03 28.0591 158.475 28.3281 159.88 28.7785C161.285 29.2357 162.617 29.8408 163.908 30.5669C165.158 31.3266 166.375 32.2006 167.437 33.1889C168.499 34.1772 169.488 35.3135 170.288 36.5304C171.088 37.7809 171.767 39.1121 172.224 40.4836C172.412 41.0551 172.607 41.6602 172.715 42.2316C172.789 42.5342 172.829 42.8367 172.903 43.146C172.944 43.4149 172.944 43.8654 173.132 44.094C173.246 44.2083 173.401 44.2486 173.549 44.2822C174.08 44.3965 174.651 44.3562 175.223 44.3562H183.122C183.768 44.3562 184.413 44.4301 185.025 44.3965C186.087 44.3226 187.116 43.9797 187.99 43.4485C188.904 42.9577 189.55 42.0837 190.081 41.2097L190.269 41.1694C190.377 41.7207 190.37 42.2854 190.444 42.8435C190.505 43.267 190.565 44.1209 190.948 44.3696C191.177 44.5175 191.466 44.5444 191.735 44.5646C192.858 44.6318 193.98 44.6184 195.103 44.6049C196.945 44.578 198.781 44.5579 200.623 44.531C200.946 44.531 201.275 44.5175 201.564 44.3763C202.035 44.141 202.008 43.6771 202.008 43.22C201.86 41.0551 201.591 38.8902 201.174 36.7253L201.161 36.7186ZM169.098 41.8081C168.526 40.1004 167.767 38.4263 166.745 36.9472C165.716 35.4681 164.466 34.1772 162.946 33.2225C159.147 30.7887 153.755 30.029 149.426 31.3602C148.323 31.7031 147.221 32.1603 146.232 32.7654C144.33 33.9016 142.36 35.5757 141.371 37.6262C140.881 38.628 140.484 39.6835 140.168 40.7525C140.007 41.3038 139.865 41.8551 139.744 42.4132C139.657 42.8166 139.482 43.5158 139.643 43.9057C139.953 44.6654 141.015 44.4705 141.64 44.4772C141.775 44.4772 141.909 44.4772 142.03 44.4167C142.393 44.2217 142.602 43.3679 142.655 42.9914C142.945 41.0685 143.375 39.2331 144.572 37.6599C145.983 35.7975 148.142 34.6008 150.327 33.8881C152.855 33.0612 155.544 33.2024 158.085 33.9083C159.336 34.2512 160.553 34.8563 161.655 35.5824C163.02 36.4967 164.008 37.8616 164.694 39.3407C165.077 40.1407 165.38 41.0147 165.608 41.8484C165.763 42.3056 165.877 42.7224 165.985 43.1796C166.025 43.3679 166.099 43.5964 166.099 43.7847C166.14 44.0133 166.214 44.1276 166.402 44.2419C166.859 44.4705 167.43 44.3965 167.921 44.3965C168.452 44.3562 169.252 44.5511 169.555 43.9797C169.669 43.7511 169.555 43.5225 169.515 43.2939C169.36 42.8031 169.246 42.3056 169.098 41.8148V41.8081Z" fill="white"/>
<path d="M135.186 88.1982L141.788 50.7499C141.909 50.0709 142.494 49.5734 143.173 49.5734H165.219C165.898 49.5734 166.308 50.0709 166.187 50.7499L164.674 59.322C164.553 60.0011 163.968 60.4986 163.289 60.4986H154.777L154.119 64.2232H160.015C160.694 64.2232 161.104 64.7208 160.983 65.4065L159.692 72.7348C159.571 73.4139 158.986 73.9114 158.307 73.9114H152.411L151.611 78.4428H160.304C160.983 78.4428 161.393 78.9403 161.272 79.6194L159.759 88.1915C159.638 88.8705 159.053 89.368 158.374 89.368H136.141C135.462 89.368 135.052 88.8705 135.173 88.1915L135.186 88.1982Z" fill="white"/>
<path d="M165.212 88.1982L171.814 50.7499C171.935 50.0709 172.52 49.5734 173.199 49.5734H187.983C195.87 49.5734 204.274 52.9955 201.383 69.3867C198.492 85.7778 188.851 89.3815 180.964 89.3815H166.18C165.501 89.3815 165.091 88.884 165.212 88.2049V88.1982ZM182.356 79.6866C184.097 79.6866 184.541 78.9403 186.222 69.3799C187.842 60.1826 187.694 59.2548 185.96 59.2548H185.032L181.428 79.6866H182.356Z" fill="white"/>
</svg>
