<svg width="226" height="90" viewBox="0 0 226 90" fill="none" xmlns="http://www.w3.org/2000/svg">
<g clip-path="url(#clip0_10_795)">
<path d="M40.3513 40.171L37.5324 56.4054L33.916 77.709L37.204 77.1265C37.4112 77.0911 37.5676 76.7802 37.6224 76.4535L44.2648 37.3294L7.84271 43.7957L8.96478 37.1838L75.3737 25.3966L67.3121 72.8761C66.7686 76.0718 64.5167 78.5512 61.1935 79.1416L0 90L0.113379 89.3388C7.76843 44.5828 33.7362 41.3517 40.3552 40.171H40.3513Z" fill="white"/>
<path d="M78.0362 24.948L136.575 14.5579C140.512 13.8574 143.945 17.2971 143.272 21.2642L139.316 44.5749C138.815 47.5188 136.294 50.1832 133.283 50.7185L71.8082 61.632L78.0362 24.948ZM109.255 48.7152C109.395 48.6916 109.54 48.4161 109.583 48.1642L113.536 24.8811L109.935 25.5186L105.896 49.3095L109.251 48.7152H109.255Z" fill="white"/>
<path d="M142.111 13.5937L218.106 0.106269C222.689 -0.708406 226.684 3.29413 225.898 7.91062L221.277 35.1019L196.92 39.4232L202.061 9.18577L198.461 9.82334L193.319 40.0608L172.078 43.8311L177.22 13.5937L173.619 14.2312L168.478 44.4687L141.083 49.3331L145.727 22.0002C146.251 18.9068 145.012 15.7779 142.514 13.8967L142.107 13.5897L142.111 13.5937Z" fill="white"/>
<path d="M69.0664 77.7407L71.334 64.391L74.5633 63.8164L72.7806 74.3206L81.9291 72.6952L81.4443 75.5446L69.0664 77.7407Z" fill="white"/>
<path d="M88.7822 74.242L91.0498 60.8924L104.147 58.5664L103.662 61.4119L93.8178 63.1593L93.4347 65.4105L101.504 63.9779L101.015 66.847L92.946 68.2795L92.5198 70.7905L102.364 69.0431L101.876 71.9161L88.7783 74.242H88.7822Z" fill="white"/>
<path d="M119.595 64.411L120.083 61.538L127.762 60.1762C127.754 60.4793 127.75 60.7823 127.695 61.0932C127.046 64.7809 123.125 68.3781 118.078 69.2754C112.409 70.2829 109.41 67.7956 110.055 63.9938C110.696 60.2117 114.754 56.4531 120.38 55.4535C122.687 55.0442 124.849 54.9379 126.495 55.3905L125.975 58.4524C124.92 58.1966 123.625 57.6614 120.353 58.2439C116.756 58.8814 113.937 60.8925 113.515 63.3798C113.128 65.6546 115.228 66.9967 118.543 66.4103C120.939 65.9852 122.769 64.9659 123.68 63.6868L119.598 64.411H119.595Z" fill="white"/>
<path d="M134.36 66.1502L136.628 52.8006L149.725 50.4746L149.24 53.3201L139.396 55.0675L139.013 57.3187L147.082 55.8861L146.594 58.7552L138.524 60.1877L138.098 62.6987L147.942 60.9513L147.454 63.8243L134.357 66.1502H134.36Z" fill="white"/>
<path d="M160.387 53.9226L159.054 61.7703L155.801 62.3488L158.111 48.7591L169.011 54.879L170.38 46.8149L173.629 46.2363L171.322 59.8261L160.387 53.9266V53.9226Z" fill="white"/>
<path d="M180.333 57.9921L182.601 44.6424L190.369 43.265C195.416 42.3676 199.041 43.139 198.157 48.3577C197.27 53.5763 193.149 55.7212 188.101 56.6186L180.333 57.996V57.9921ZM188.59 53.7416C190.987 53.3166 194.099 52.4861 194.697 48.9677C195.295 45.4532 192.277 45.709 189.88 46.134L185.337 46.9408L184.043 54.5484L188.586 53.7416H188.59Z" fill="white"/>
<path d="M219.319 41.1393C217.451 40.9583 215.785 41.1629 213.733 41.525C212.141 41.8084 209.577 42.3082 209.377 43.481C208.881 46.4012 220.602 40.5844 219.499 47.0703C218.87 50.7777 214.73 52.1158 211.25 52.7337C208.713 53.1823 206.336 53.3752 204.479 53.3791L205.081 50.4864C206.973 50.5455 209.291 50.4353 211.758 49.9984C213.948 49.6088 216.188 48.9318 216.387 47.759C216.907 44.6971 205.174 50.5848 206.257 44.2209C206.883 40.5371 211.086 39.3486 214.127 38.8094C216.618 38.3686 218.373 38.2899 219.898 38.3883L219.319 41.1354V41.1393Z" fill="white"/>
</g>
<defs>
<clipPath id="clip0_10_795">
<rect width="225.998" height="90" fill="white"/>
</clipPath>
</defs>
</svg>
