<svg width="199" height="86" viewBox="0 0 199 86" fill="none" xmlns="http://www.w3.org/2000/svg">
<path d="M20.5785 16.8675C20.4807 15.1774 18.8884 13.7986 17.1983 13.7986C16.7179 13.9098 16.1975 14.0655 15.6638 14.1767C15.2946 14.279 12.6082 14.5458 12.2391 14.6437C9.9574 15.2352 7.69353 15.8668 5.47857 16.445C4.88703 16.8142 4.15316 17.1789 3.5794 17.766C3.20135 18.0239 2.46748 18.7667 2.46748 18.8201C2.25399 19.1314 1.51122 20.8215 1.29773 21.5109C1.14206 21.72 0.928573 22.9342 0.928573 23.1477C0.928573 23.5257 1.29773 26.4835 1.29773 26.906V28.4271C1.29773 34.5071 0.928573 40.5782 0.928573 46.7072C0.928573 47.4988 1.13762 48.6063 1.71582 49.0289C2.19172 49.398 2.72544 49.7627 3.1969 50.1408C3.57496 50.3988 4.73136 50.8213 4.73136 50.8213C5.73209 50.5633 6.74617 50.2431 7.7469 49.9762C7.95594 49.9317 9.43702 49.9762 9.59269 49.9317C9.85956 49.8739 10.1264 49.7627 10.3799 49.7227C10.758 49.6115 13.0263 49.398 13.391 49.3002C14.503 49.0333 15.6594 48.7664 16.7713 48.4996C18.8839 47.7657 20.0492 44.808 20.2627 43.0645C20.2627 42.2773 20.5741 38.9504 20.5741 38.3633V31.5049C20.7297 31.3492 20.8409 31.1358 20.9432 30.9712V27.7021C20.9432 23.8994 21.001 20.6214 20.5741 16.872L20.5785 16.8675ZM2.17393 29.7792C2.17393 29.7792 2.17393 29.7436 2.16503 29.7214C2.19617 29.7125 2.19617 29.7659 2.19617 29.8103C2.18727 29.797 2.17393 29.797 2.17393 29.7792ZM2.17393 27.8756C2.17393 27.8534 2.17393 27.84 2.16503 27.8222C2.19617 27.8089 2.19617 27.8667 2.19617 27.9112C2.18727 27.9023 2.17393 27.9023 2.17393 27.88V27.8756ZM4.81142 23.0721C4.81142 23.0409 4.81142 22.992 4.78918 22.992C4.847 22.992 4.847 23.0454 4.847 23.0943C4.83217 23.0854 4.82031 23.078 4.81142 23.0721ZM7.32437 40.6405C7.32437 40.6405 7.34661 40.6405 7.35995 40.6272C7.35995 40.6405 7.3466 40.6494 7.3466 40.6627C7.3466 40.6761 7.3466 40.6761 7.33326 40.685C7.33326 40.6939 7.33326 40.7072 7.31992 40.7161V40.636L7.32437 40.6405ZM7.32437 40.7739C7.3466 40.7517 7.36884 40.7295 7.39108 40.7206C7.37774 40.7428 7.3555 40.7739 7.32437 40.8006V40.7739ZM13.3955 29.3878C13.3955 29.757 13.0308 32.5012 13.0308 32.8659V39.4129C12.4526 40.3114 11.652 40.5249 10.9715 40.6805C10.6468 40.7917 10.3355 40.8451 10.0152 40.9474C10.0152 40.9474 9.59269 40.894 9.59269 40.6805C9.43702 40.5782 9.01449 39.8888 8.85882 39.7332V33.6087C8.85882 30.5398 8.64533 26.9505 9.22353 23.5257C9.43258 22.8942 10.3799 22.8363 10.5445 22.7785C11.3362 22.6229 12.6038 22.2581 13.0263 22.8897C13.0263 23.8326 13.391 28.0046 13.391 29.0142V29.3834L13.3955 29.3878Z" fill="white"/>
<path d="M49.0972 7.30498C48.519 6.82908 47.9852 7.09594 47.407 7.20268C45.0809 7.51402 42.6035 8.51476 40.2774 9.10185C40.0105 9.10185 39.7437 9.14633 39.5346 9.20415C38.9564 9.31534 38.3782 9.41319 37.9557 9.10185C35.7852 9.47101 33.6192 9.89354 31.462 10.3161C31.253 10.3694 30.5058 11.6815 30.2923 12.0596V14.7504C30.2923 14.9595 30.6614 16.8053 30.6614 17.0188V17.7615C30.6614 17.9706 31.084 18.2285 31.084 18.442V33.0305C31.084 33.453 30.6614 35.0853 30.6614 35.4545V38.5234C30.6614 38.7324 30.5058 39.3106 30.2923 39.3685V43.5938C30.2923 43.5938 30.8705 44.0608 31.0795 44.172C31.0795 44.172 31.6133 44.4388 31.8268 44.381C32.0358 44.5901 32.9831 44.5901 32.9831 44.5901C33.3612 44.5367 36.4168 44.3232 37.2085 44.1675C37.5865 44.1142 38.0091 44.0563 38.3738 43.9585C38.5294 43.9585 39.3211 44.0163 39.5302 43.4248C39.5302 43.2157 39.9082 40.7917 39.9082 40.636C40.0061 40.3692 40.1173 40.1023 40.2729 39.791V39.4129C40.2729 39.2039 39.9082 37.3536 39.9082 37.1446V31.3848C39.9082 31.0735 40.0639 30.0728 40.2729 29.8059C40.2729 29.6502 40.8511 29.33 41.0602 29.33C42.1721 29.121 43.3418 28.9608 44.4982 28.7518C44.8674 28.6984 46.8244 28.7518 47.1891 28.6984C48.1454 28.2225 47.7673 26.5324 47.9763 25.8964C48.0875 25.7407 48.1854 25.6295 48.3544 25.4738C48.3544 25.2648 48.1454 24.74 47.9763 24.74V20.5147C47.9763 20.5147 47.3981 20.2478 47.1891 20.2478C47.1446 20.3012 47.0334 20.3012 46.9756 20.3012C45.6546 20.5102 44.1291 21.0929 42.7503 21.3553C42.2744 21.3997 41.8519 21.4531 41.4293 21.5643C41.2203 21.5643 40.4864 21.3553 40.2729 21.3553C39.5302 21.3553 39.5302 21.5109 39.5302 20.5547V19.9765C39.5302 19.7674 39.6947 18.9757 39.9082 18.7623C39.9082 18.6066 40.2729 17.9172 40.2729 17.9172C40.4864 17.7082 41.8074 17.2856 42.1721 17.1744C42.7503 17.0721 47.3981 16.8053 47.9763 16.7074L49.0883 16.5384C49.2973 16.5384 49.8889 16.018 49.8889 16.018C49.8889 15.8624 50.2536 14.4257 50.2536 14.061V8.67932C50.089 8.51476 49.2973 7.51402 49.0883 7.30053L49.0972 7.30498ZM31.6177 33.7377C31.6177 33.7377 31.5866 33.7466 31.5643 33.7466C31.5777 33.7243 31.5999 33.7154 31.6177 33.7154H31.7067C31.6711 33.7288 31.6533 33.7288 31.6177 33.7377Z" fill="white"/>
<path d="M66.1096 6.03739C66.1096 6.05962 66.1096 6.09076 66.123 6.11745C66.123 6.13079 66.123 6.13968 66.1319 6.13079C66.123 6.09521 66.1096 6.07742 66.1096 6.04183V6.03739ZM66.1452 39.3284V39.3418L66.1674 39.3195C66.1674 39.3195 66.1541 39.3329 66.1452 39.3329V39.3284ZM77.7848 4.34726C77.1977 3.82243 76.6729 4.03592 76.0947 4.0804C73.7152 4.24941 71.2378 5.03665 68.9117 5.40137C68.6448 5.40137 68.3779 5.40137 68.1689 5.45919C67.5907 5.51256 66.9591 5.55704 66.5366 5.25014C64.3706 5.45919 62.2001 5.67268 60.043 5.93954C59.8339 5.93954 59.0867 7.20713 58.8777 7.57184V10.2627C58.8777 10.4717 59.2424 12.322 59.2424 12.531V13.2738C59.2424 13.4828 59.6649 13.7986 59.6649 14.0077V28.5961C59.6649 29.0187 59.2424 30.5976 59.2424 30.9623V34.0312C59.2424 34.2403 59.0867 34.8229 58.8777 34.8763V39.1016C58.8777 39.1016 59.4559 39.5775 59.6649 39.7332C59.6649 39.7332 60.1986 40.0445 60.4077 40C60.6167 40.2091 61.5641 40.3114 61.5641 40.3114C61.9421 40.258 64.9977 40.3114 65.7894 40.258C66.2119 40.2135 66.59 40.1557 66.9591 40.1557C67.1148 40.1023 67.9599 40.258 68.1689 39.6798C68.1689 39.4708 68.5381 37.0912 68.5381 36.9356C68.6493 36.6687 68.7471 36.4107 68.9161 36.0905V35.7213C68.9161 35.5123 68.5381 33.6665 68.5381 33.453V27.6932C68.5381 27.3241 68.7026 26.3723 68.9161 26.101C68.9161 25.9453 69.4943 25.6784 69.7034 25.6784C70.8598 25.5806 71.9717 25.4694 73.1414 25.4249C73.5106 25.3715 75.5121 25.6251 75.8857 25.5806C76.833 25.158 76.4639 23.4146 76.6729 22.8364C76.7752 22.7252 76.8864 22.5695 77.0421 22.4583C77.0421 22.2581 76.833 21.6666 76.6729 21.6666V17.4413C76.6729 17.4413 76.0947 17.1299 75.8857 17.1299H75.6766C74.3557 17.2278 72.7634 17.7082 71.3935 17.8638C70.971 17.8638 70.4951 17.9172 70.0725 17.975C69.8635 17.975 69.1296 17.6548 68.9161 17.6548C68.1734 17.6014 68.1155 17.766 68.1734 16.8097V16.2315C68.1155 16.0225 68.329 15.2308 68.5425 15.0217C68.4847 14.8527 68.9206 14.279 68.9206 14.279C69.1341 14.0121 70.4461 13.7008 70.8197 13.6474C71.3979 13.594 76.0992 13.7008 76.6774 13.6474C77.0465 13.6474 77.4112 13.594 77.7893 13.594C78.0028 13.594 78.581 13.127 78.581 13.127C78.581 12.9625 78.9457 11.5926 78.9457 11.2279V5.83724C78.79 5.68157 78.0028 4.56965 77.7893 4.3606L77.7848 4.34726ZM60.5411 23.9171C60.5411 23.8816 60.5278 23.8504 60.5189 23.8282C60.5189 23.8282 60.5263 23.8326 60.5411 23.8415C60.5633 23.8771 60.5633 23.8949 60.5633 23.8949L60.5411 23.9171ZM66.0562 6.03739H66.0785C66.0785 6.05962 66.0874 6.08186 66.1096 6.11745C66.1096 6.11745 66.1022 6.113 66.0874 6.1041H66.0785C66.0785 6.1041 66.0651 6.09076 66.0562 6.09076V6.03739ZM66.0785 39.4396C66.0785 39.4396 66.0562 39.4396 66.0562 39.4174C66.0562 39.3818 66.1007 39.364 66.1319 39.3373C66.1096 39.3729 66.0785 39.3907 66.0785 39.4396ZM74.1955 10.9521L74.2178 10.9743C74.2311 10.9966 74.2311 11.0277 74.2311 11.0544C74.2311 11.0322 74.2178 11.001 74.1955 10.9521ZM74.2178 8.86168C74.1733 9.18191 74.1644 9.6845 74.1733 10.1604C74.1644 10.0492 74.1511 9.93802 74.1422 9.81793C74.1422 9.71563 74.1511 9.61779 74.1511 9.52883C74.1644 9.15078 74.1866 8.78607 74.2311 8.6304C74.2311 8.68377 74.2178 8.77717 74.2178 8.86612V8.86168Z" fill="white"/>
<path d="M101.371 6.99364C101.371 6.99364 101.358 7.00699 101.358 7.01588C101.371 6.99364 101.38 6.99364 101.389 6.99364H101.367H101.371ZM108.518 17.6014C108.518 17.2322 109.786 16.2893 109.786 15.8668C109.786 15.6578 110.84 13.3316 110.84 13.1226V10.2093C110.84 9.31979 110.418 7.04257 110.418 6.8869C110.418 6.67786 109.573 4.92991 109.15 4.29834C108.26 2.87507 107.193 2.2435 105.712 1.82097C105.289 1.82097 102.332 0.922531 101.865 0.922531C101.7 0.922531 100.811 0.5 100.597 0.5C98.2176 0.5 95.7847 0.5 93.4141 0.553372C93.205 0.553372 91.5149 1.02928 91.3014 1.02928C90.3985 1.02928 89.5535 1.0871 88.7084 1.0871C88.4993 1.0871 87.8633 1.76315 87.8633 1.97664C87.8633 2.56373 87.4408 5.94398 87.4408 6.52219V13.5496C87.4408 15.0262 87.8633 27.0706 87.8633 28.436V34.774C87.8633 34.983 88.0768 35.8281 88.3392 36.0416C88.3392 36.0416 89.34 36.6287 89.5535 36.7843C90.821 37.4159 91.4526 37.1535 92.778 37.1535C93.8321 37.0957 94.6772 37.3092 95.5223 36.6731C95.7313 36.5175 96.523 35.6724 96.7899 35.4056C97.4704 34.8274 97.2124 34.4048 97.2124 33.6131C97.2124 31.3448 96.7899 28.5428 96.7899 26.2211C96.7899 25.7985 96.7899 25.5895 97.2124 25.376C97.4704 25.1669 98.9025 24.7444 99.3695 24.5843H99.5341C99.7876 24.5843 100.001 24.5843 100.17 24.9935C100.17 25.1625 101.117 26.0076 101.117 26.2166C101.117 26.8482 101.593 30.8644 101.593 31.7095V36.2995C101.749 36.6643 102.381 37.0868 102.914 37.0868C103.283 37.0868 106.126 37.5093 106.548 37.5627C107.393 37.5093 108.194 37.5093 109.039 37.5093H109.461C111.521 37.5627 110.409 35.7747 110.409 34.0846V33.0705C110.409 32.4389 109.933 27.7466 109.933 27.1106V23.4101C109.933 23.2011 109.564 21.5643 109.564 21.2974C109.564 21.1418 108.51 19.8742 108.51 19.6607C108.14 19.3938 107.82 19.0736 107.509 18.8156V18.3397C107.82 18.0729 108.14 17.8638 108.51 17.597L108.518 17.6014ZM90.3274 19.6251C90.3274 19.6251 90.2918 19.6385 90.2829 19.6474C90.3051 19.6251 90.314 19.6162 90.3274 19.594C90.3274 19.594 90.3407 19.594 90.3496 19.6073L90.3274 19.6296V19.6251ZM100.602 15.4443C100.49 15.5421 100.335 15.6978 100.179 15.8668H97.2213C97.0567 15.8668 96.3762 15.4443 96.3762 15.4443V9.15078C96.3762 9.15078 97.0523 8.78607 97.2213 8.78607H100.179C100.335 8.89726 100.433 8.99511 100.602 9.15078C101.069 10.4184 101.069 11.0499 101.069 12.3175C101.069 13.5851 101.069 14.1722 100.602 15.4398V15.4443Z" fill="white"/>
<path d="M138.305 9.95136C138.149 8.20786 136.57 6.36207 134.88 5.72605C134.346 5.72605 133.826 5.66823 133.346 5.61486C132.923 5.56148 130.232 4.92546 129.81 4.92546C127.488 4.71642 125.162 4.5563 122.827 4.40508C122.248 4.56075 121.515 4.67194 120.936 5.09447C120.558 5.19232 119.771 5.72605 119.771 5.72605C119.558 5.93509 118.824 7.41617 118.615 7.99437C118.401 8.20342 118.179 9.31534 118.179 9.52883C118.179 9.89799 118.615 12.9536 118.615 13.3761V14.9105C118.557 21.035 118.179 27.0083 118.179 33.0794C118.237 33.88 118.401 35.0898 119.024 35.668C119.5 36.2017 120.034 36.7799 120.558 37.3003C120.936 37.6783 122.093 38.5234 122.093 38.5234C123.147 38.5679 124.152 38.6212 125.206 38.7324C125.415 38.7324 126.954 39.2528 127.105 39.2528C127.372 39.3062 127.639 39.3062 127.893 39.3062C128.271 39.364 130.592 39.9378 130.962 39.9378C132.118 40.0401 133.288 40.1468 134.453 40.2491C136.566 40.2491 137.722 37.7139 137.931 36.0238C137.931 35.2321 138.3 32.012 138.3 31.4338V24.5754C138.411 24.4642 138.567 24.3085 138.678 24.1973V20.9283C138.678 17.1255 138.678 13.8475 138.3 9.94247L138.305 9.95136ZM126.474 38.4611C126.474 38.4611 126.474 38.47 126.46 38.4834L126.425 38.5189C126.438 38.4967 126.46 38.4834 126.46 38.4522V38.4389C126.46 38.3944 126.425 38.3722 126.403 38.3366C126.438 38.3588 126.469 38.3811 126.469 38.4166V38.4611H126.474ZM130.966 19.9809C130.966 20.3456 130.597 23.0498 130.597 23.4146V29.9616C130.019 30.651 129.218 30.5931 128.484 30.4953C128.159 30.4953 127.848 30.4419 127.528 30.4419C127.528 30.4419 127.105 30.2329 127.105 30.0194C126.95 29.8637 126.527 29.0187 126.372 28.8096V22.6718C126.372 19.6162 126.162 15.9691 126.736 12.7445C126.95 12.1663 127.893 12.4866 128.062 12.4866C128.849 12.531 130.174 12.6422 130.597 13.4339C130.597 14.3902 130.966 18.66 130.966 19.6162V19.9854V19.9809ZM133.412 34.903C133.426 34.8807 133.434 34.8496 133.434 34.814L133.448 34.8274C133.448 34.8585 133.434 34.8807 133.412 34.9074V34.903Z" fill="white"/>
<path d="M169.261 35.2499V30.2907C169.052 30.2373 168.896 30.0238 168.896 29.8148C168.896 29.6591 169.052 29.072 169.261 29.1254V22.2092C169.052 21.7867 168.896 21.5777 168.896 21.1951V20.995C168.994 20.7726 169.105 20.5191 169.261 20.3056V16.4495C169.105 16.1826 168.994 15.8713 168.896 15.6044V14.8572C168.682 14.3902 167.94 12.9135 167.726 12.7C167.726 12.7 166.57 11.4769 166.192 11.2679C165.934 11.0588 165.667 10.8987 165.4 10.6897C165.4 10.6897 164.822 9.84462 164.666 9.84462C164.288 9.74677 163.866 9.68895 163.496 9.63558C163.287 9.57776 162.918 9.11075 162.709 9.05738C160.063 8.58147 157.372 8.10112 154.681 7.67859C154.472 7.67859 154.103 8.05664 153.894 7.99882C153.685 7.941 153.414 7.94545 153.147 7.88763C152.88 7.88763 152.359 8.5192 152.359 8.5192C152.15 8.47473 151.403 8.78607 151.19 8.72825C151.092 8.99511 150.981 9.2086 150.825 9.41764C150.558 9.52883 150.305 9.62668 150.033 9.6845C149.291 10.1604 148.921 11.0499 148.499 11.7972V16.0225C148.499 16.2315 148.13 16.9209 148.13 17.1344V19.0336C148.13 19.2426 148.499 21.1907 148.499 21.3997V29.8593C148.708 29.8593 148.921 30.0683 148.921 30.2818C148.921 30.4953 148.499 31.1713 148.499 31.3804C148.654 31.6472 148.823 31.9141 148.921 32.181C148.921 32.39 148.712 32.9148 148.499 32.9148V39.0393C148.499 39.4619 148.708 40.7828 148.921 41.0497C148.921 41.2054 149.455 41.4722 149.669 41.5167C151.612 41.7836 153.516 42.0504 155.415 42.3618C155.415 42.3618 156.216 41.9392 156.585 41.7836C156.794 41.7836 156.954 41.4722 156.954 41.4722C157.376 40.3603 157.376 39.6175 157.376 38.6702V37.6694C157.376 37.5004 156.954 36.6554 156.954 36.5041C156.954 36.2951 157.221 36.135 157.376 36.135V31.545C158.164 31.7006 158.911 31.7985 159.645 31.9141C159.854 32.3366 160.023 32.9682 160.445 33.2351V40.1512C160.445 40.3069 160.601 41.4722 160.814 41.7302C161.024 42.1527 161.757 42.6286 161.971 42.6864C162.135 42.9533 163.141 43.318 163.141 43.318C164.564 43.5849 165.943 43.8384 167.366 44.1053C167.522 44.1053 168.313 44.0519 168.478 43.8962C168.58 43.7984 168.731 43.6872 168.9 43.6294C168.9 43.4737 169.265 42.3618 169.265 42.1527V40.6316C169.265 40.4226 169.634 40.3114 169.634 40.3114V36.0861C169.479 35.8192 169.367 35.5078 169.265 35.241L169.261 35.2499ZM155.375 27.1195C155.375 27.0661 155.317 27.0661 155.317 27.0083L155.353 26.9772C155.353 26.9772 155.339 26.9994 155.339 27.0083C155.339 27.0439 155.353 27.0528 155.375 27.075V27.1195ZM155.375 26.9994C155.375 26.9994 155.362 26.9772 155.362 26.9638L155.375 26.9505V26.9994ZM157.599 25.4961C157.599 25.4961 157.563 25.4961 157.541 25.5094C157.554 25.4961 157.577 25.4872 157.585 25.4783C157.643 25.4783 157.697 25.5317 157.741 25.5317C157.706 25.5539 157.639 25.4961 157.594 25.4961H157.599ZM157.852 24.8423C157.83 24.8289 157.839 24.82 157.83 24.8067C157.817 24.8067 157.817 24.7933 157.808 24.7933H157.852V24.8423ZM160.445 20.1944V22.0936C160.445 22.4627 160.023 23.2055 160.023 23.2055C159.276 23.0498 158.542 22.9386 157.741 22.8364C157.741 22.8364 157.372 22.147 157.372 21.9379V18.5043C157.274 18.2374 157.105 17.9795 156.949 17.6592C156.949 17.6592 157.216 17.3479 157.372 17.3479C157.741 17.2367 159.271 16.872 159.64 16.9698C160.597 17.9261 160.441 19.1937 160.441 20.1944H160.445Z" fill="white"/>
<path d="M197.784 19.9276C197.472 19.4605 195.938 18.2952 195.938 18.2952C195.782 18.0862 193.403 17.1833 193.025 17.081C189.969 16.236 186.909 15.4487 183.84 14.7015C183.106 14.3323 182.306 13.9676 181.572 13.8031C181.149 13.7008 180.037 13.8031 180.037 14.1811C180.037 14.3902 180.402 15.2352 180.402 15.4487C180.402 15.6622 180.091 17.4502 180.037 17.6592V23.419C180.037 23.9972 179.668 28.4894 179.615 29.0676C179.673 29.2321 180.037 30.8689 180.037 31.0779V32.8214C180.037 33.3996 180.193 34.7651 179.615 35.1876V44.0163C179.304 44.172 178.828 44.381 178.828 44.7502V45.1193C178.828 45.1193 179.348 45.5952 179.615 45.6531C180.349 45.8087 181.149 45.9644 181.941 46.0756C182.15 46.129 184.054 47.0185 184.267 47.0763C186.647 47.6545 189.013 48.2861 191.45 48.9221C191.606 48.9221 191.984 49.4558 192.14 49.4558C192.242 49.5137 192.295 49.5137 192.349 49.5137C193.505 49.825 194.252 49.6693 195.151 49.5137C195.306 49.5581 195.462 49.5581 195.564 49.6115C195.729 49.6649 196.307 49.4558 196.307 49.4558C196.516 49.3446 197.477 48.4551 197.628 48.2905C197.784 48.0815 197.939 47.868 198.051 47.7123C198.26 47.0808 198.42 46.4447 198.571 45.8132V33.5598C198.571 33.1906 198.949 29.9126 198.949 29.4901V23.5302C198.949 22.7296 198.571 20.7726 197.779 19.9276H197.784ZM191.446 45.2883V45.235H191.468C191.468 45.235 191.455 45.2883 191.446 45.2883ZM191.757 32.8704V35.1921C191.757 35.4011 191.392 36.8377 191.446 36.9934V38.5278C191.388 38.7369 191.179 39.2617 190.756 39.4174C190.387 39.9511 189.702 39.5819 189.124 39.4174C188.755 39.3151 188.39 39.2617 188.012 39.1639C187.803 39.106 187.225 37.9941 187.225 37.8429V34.7295C187.225 34.1958 187.225 33.7199 187.283 33.195V28.605C187.283 28.227 187.069 24.8022 187.069 24.4242C187.069 24.4242 187.011 23.2678 187.172 22.9475C187.496 23.0009 187.647 22.1559 189.338 22.6362C189.916 22.7385 190.494 22.9031 191.028 23.4813C191.237 23.6903 191.762 24.273 191.762 24.4286C191.984 24.9045 192.14 26.4968 192.14 26.8615C192.14 27.4397 191.762 32.2966 191.762 32.8748L191.757 32.8704ZM192.811 28.6539V28.6406H192.833C192.833 28.6406 192.82 28.6539 192.811 28.6539ZM194.092 33.2796C194.137 33.2573 194.172 33.1906 194.172 33.115L194.194 33.1372C194.194 33.1906 194.15 33.2395 194.092 33.284V33.2796Z" fill="white"/>
<path d="M83.7937 78.099C83.7892 78.3259 84.0694 78.3259 84.0694 78.099C84.0561 77.8766 83.7981 77.8766 83.7937 78.099Z" fill="white"/>
<path d="M99.7609 52.4002C99.7609 52.627 100.041 52.627 100.037 52.4002C100.037 52.2268 99.7609 52.2268 99.7609 52.4002Z" fill="white"/>
<path d="M104.084 64.8049C104.075 65.0272 104.369 65.0317 104.36 64.8049C104.373 64.6314 104.075 64.6314 104.084 64.8049Z" fill="white"/>
<path d="M15.8284 78.0679C15.8284 77.9122 15.5081 77.423 15.5081 77.423C14.1738 77.4763 12.8395 77.592 11.5052 77.6454C11.5052 77.5342 11.0827 77.3785 10.9715 77.3785C10.8158 77.3785 9.37031 77.801 9.21464 77.801H8.94778V77.2095C8.78321 76.5779 8.35623 76.0308 8.35623 75.3993V75.079C8.35623 75.079 8.77876 74.7544 8.94778 74.701C9.21464 74.5453 9.90403 74.3318 10.0597 74.3318C11.5052 74.2206 12.9507 74.1228 14.3962 73.9538C14.9299 73.6335 14.9299 72.3526 14.9299 71.6632V70.6981C14.8721 70.3734 14.6053 68.83 14.6053 68.5632C14.6053 68.3541 14.3384 67.7626 14.3384 67.6069C14.0715 67.34 13.7468 67.0198 13.48 66.7529C13.3243 66.5839 13.0575 66.5306 12.8884 66.5306C12.03 66.6418 11.1761 66.7529 10.331 66.8508C9.89959 66.962 8.88551 66.7529 8.88551 66.7529C8.88551 66.7529 8.72094 66.1614 8.72094 65.9968C8.72094 65.899 8.88551 65.1963 8.88551 65.1963C8.88551 65.1963 9.74391 64.7737 10.0063 64.7737C11.5541 64.5069 13.053 64.2978 14.6008 64.0843C14.7565 64.031 15.1923 63.8086 15.1923 63.5951C15.4592 63.1192 15.4592 62.3141 15.4592 61.6737V60.9843C15.4592 60.8731 15.1923 60.2371 15.1345 60.0725V56.2252C15.0233 56.1808 14.9255 56.0696 14.8098 56.0162C12.03 56.5499 9.30804 57.137 6.5816 57.7286C6.25692 57.8398 3.43263 58.7382 3.16577 58.796C2.68986 58.9072 2.19617 59.0051 1.77808 59.1207C1.60907 59.1741 1.4534 59.3297 1.51122 59.4854C1.40003 60.286 1.30218 61.0955 1.18654 61.9005V73.6958C1.18654 73.807 0.919678 74.1717 0.919678 74.2829V74.6076C0.919678 74.7054 1.18654 75.5638 1.18654 75.7284V78.8729C1.18654 79.2955 1.51122 82.1286 1.51122 82.609C1.51122 82.778 1.18654 83.8988 1.18654 84.0545V84.3214C1.18654 84.6416 1.18654 84.7973 1.51122 84.9085C1.88928 85.0641 3.64612 85.2331 4.08199 85.2331C6.52823 85.1753 9.04118 85.1753 11.5541 85.1753C11.821 85.5 12.2435 85.5 12.6749 85.5C13.6846 85.5 14.6987 85.331 15.8195 85.1753C16.0863 83.7298 16.0863 82.9292 16.0863 81.4392V79.6735C16.0863 79.5178 15.9307 78.3926 15.8195 78.0723L15.8284 78.0679ZM1.94265 77.0583C1.89817 77.0583 1.8448 77.1116 1.78698 77.1606C1.8448 77.0583 1.94265 76.9515 2.05384 77.0583H1.94265ZM8.08937 79.8247C8.05379 79.8247 8.06713 79.7936 8.04489 79.7803C8.05824 79.7936 8.05824 79.8336 8.08937 79.8336C8.05082 79.8336 8.03155 79.8158 8.03155 79.7803H8.08937V79.8247Z" fill="white"/>
<path d="M40.3485 80.9055C40.1395 80.6387 39.9705 80.4163 39.757 80.2072C39.757 79.9982 39.4901 79.2955 39.4901 79.0864C39.3923 78.9886 39.2811 78.8774 39.1655 78.7662C39.0676 78.4993 39.0098 78.2325 38.8986 78.0234C38.6895 77.7566 38.4761 77.5431 38.3204 77.334C38.1514 77.125 37.5643 75.3548 37.462 75.1458C36.8171 73.8648 36.2833 72.8463 35.6918 71.6232C35.5361 71.2985 35.0558 70.2355 35.0558 70.2355V69.1147C35.3671 68.2563 37.0217 64.1021 37.3463 63.1903C37.3463 62.9813 37.8801 62.2252 37.8801 62.0117C38.1469 61.4246 38.8897 59.1874 39.0009 58.965V58.2223C39.0009 58.0666 39.5924 57.266 39.5924 57.1014V56.6789C39.6903 56.1452 40.4508 54.4328 40.4508 53.8457C40.393 52.7249 39.5391 52.676 38.9475 52.4091H38.6807C38.4716 52.5648 38.2581 52.7204 38.0891 52.885C37.8801 52.7738 37.7199 52.676 37.5109 52.6182C37.0217 52.6715 36.5991 52.7204 36.1232 52.7738C35.9587 52.8272 35.1003 54.0548 34.9446 54.4284C34.8334 54.6374 34.2463 56.461 34.144 56.6745C34.144 56.8301 33.4991 57.6307 33.5525 57.8531C33.1744 58.8627 32.8097 59.8768 32.4316 60.8331C32.4316 61.0021 32.1648 61.9539 32.1648 61.9539C32.0091 62.1184 31.5777 61.6425 31.422 61.6425C31.422 61.6425 31.5777 61.478 31.5777 61.2645C31.5199 61.1088 30.9861 60.6196 30.9861 60.6196C30.2389 59.4987 29.9765 57.9509 29.4962 56.6166C29.4962 56.461 29.2293 55.816 29.2293 55.6026C29.2293 55.438 28.8068 55.0155 28.6377 55.0155C28.3709 55.0688 26.6585 55.0155 26.3472 55.0688C26.236 55.0688 26.1248 55.0688 26.0803 55.1222C25.8579 55.2245 25.6444 55.3891 25.4888 55.5447C25.0573 55.5981 23.1893 56.0785 22.7668 56.1363C22.7668 56.3453 22.9225 57.1459 22.9225 57.3016C23.0336 57.4128 23.1315 57.524 23.1893 57.5684C23.1893 57.7908 23.514 58.3779 23.514 58.5914C23.6252 58.6448 23.723 58.7471 23.8387 58.8583C23.9365 59.2274 24.7949 60.9354 24.9595 61.4157C25.2264 62.2697 25.5377 63.2393 25.8624 64.0932L26.1292 64.3601C26.1292 64.5691 26.3961 65.2051 26.3961 65.3742C26.5073 65.472 26.6185 65.5832 26.7208 65.6944C26.7208 65.8501 27.0455 66.495 27.0455 66.704C27.1567 66.8063 28.0151 68.5142 28.1663 68.6299C28.322 68.9946 28.7578 69.6395 28.7578 70.0176V70.3378C28.6466 70.4935 28.5933 70.6047 28.491 70.707C28.491 70.916 28.2241 71.9834 28.2241 72.0946C28.2241 72.0946 27.7882 73.0064 27.6326 73.2155C27.5214 73.3133 27.4636 73.4245 27.3657 73.5357C27.3657 73.7447 27.0988 74.4341 27.0988 74.6031C26.9298 74.8122 26.663 75.8796 26.5073 76.0353C26.3961 76.1465 26.3516 76.2577 26.2404 76.3555C26.2404 76.5779 25.9736 77.2673 25.9736 77.423C25.809 77.801 25.382 78.655 25.382 78.8107C25.173 79.0197 25.004 79.2866 24.8483 79.5089C24.8483 79.718 24.5236 80.3674 24.5236 80.5764C24.4213 80.7321 24.1011 81.7417 23.9899 81.9641C23.8342 82.2754 23.3984 82.5957 23.3984 83.1294C23.3984 83.4496 24.2568 84.308 24.5192 84.308H26.8765C26.9788 84.308 28.4776 84.6282 28.5799 84.6282C28.7445 84.6282 29.2782 84.2502 29.4339 83.8855C29.7007 83.3962 30.8216 80.4074 31.1462 79.6602C31.1462 79.5045 31.4131 78.7484 31.4131 78.5927C31.4131 78.4371 31.68 78.2147 31.68 78.2147C31.8356 78.2147 32.1025 78.4371 32.2715 78.5394C32.3738 78.8062 32.4806 79.0153 32.5962 79.2821C32.5962 79.3355 33.1744 79.8247 33.1744 79.927V80.6698C33.1744 80.8922 33.717 81.4259 33.717 81.4259C33.8727 81.5282 34.4598 83.3518 34.6199 83.503C34.6199 83.712 34.8868 83.8277 34.8868 83.8277C36.0654 84.2502 36.9238 84.2502 38.0446 84.1924H39.5346C39.6903 84.0945 39.9127 83.9255 40.0683 83.8277C40.224 83.8277 40.9267 83.6587 40.9267 83.4496V82.3288C40.9267 82.1731 40.4953 81.0523 40.3352 80.8966L40.3485 80.9055ZM34.2107 64.6803L34.1974 64.7026C34.184 64.7026 34.1751 64.6892 34.1618 64.6803C34.1529 64.6714 34.1529 64.6581 34.1529 64.6581H34.2063V64.6803H34.2107ZM34.1885 60.9798H34.2107C34.2241 61.011 34.233 61.0332 34.2552 61.0465C34.2196 61.0243 34.2107 61.0021 34.1885 60.9798Z" fill="white"/>
<path d="M63.6323 63.2259C63.6323 61.9939 63.5878 60.713 63.5878 59.481C63.5878 58.4135 63.2675 53.9347 63.2675 53.1341C63.0985 51.8976 62.3558 49.8205 61.4974 49.7094C61.2305 49.7627 59.6293 49.4425 59.2068 49.5003C58.4507 49.5537 57.6501 49.6693 56.9073 49.7094C56.4848 49.7627 53.5938 50.5099 53.1134 50.5678C52.424 50.6211 48.6791 51.4217 47.9319 51.5329C47.9897 55.4247 48.0431 59.3253 48.0431 63.2304C48.0431 63.6529 47.7762 66.6996 47.834 67.0643V68.1851C47.834 68.5632 48.1009 71.174 48.1009 71.552C48.1454 73.4779 48.5234 82.5601 48.5234 84.4726C48.6791 85.0597 49.115 84.8506 49.2662 84.8506H49.9645C50.6539 84.8506 54.4478 84.4726 55.146 84.4726C55.0882 80.7365 55.0882 77.0004 55.0349 73.211C55.0349 73.211 56.0489 72.833 56.4804 72.7751C57.0719 72.7751 59.8962 72.2414 60.4833 72.2414C60.6389 72.0857 61.4929 71.6098 61.6619 71.4408C61.8176 71.2318 62.5203 70.5958 62.5203 70.5958C63.8013 68.7188 63.6323 65.4142 63.6323 63.2259ZM49.1105 83.7832C49.072 83.7832 49.0527 83.7654 49.0527 83.7298C49.066 83.7654 49.0883 83.7521 49.1105 83.7743V83.7832ZM49.1105 83.7387C49.1105 83.7387 49.0972 83.7387 49.0972 83.7254H49.1105V83.7387ZM50.178 51.5285L50.2002 51.5062C50.2002 51.5062 50.178 51.5374 50.178 51.5729V51.5285ZM50.1201 51.6308H50.1557C50.1557 51.7197 50.178 51.7998 50.2224 51.7998C50.1646 51.8443 50.1201 51.7464 50.1201 51.6886V51.6308ZM52.6909 62.1229V62.1007C52.7265 62.0695 52.7354 62.0473 52.7665 62.025C52.7443 62.0562 52.722 62.0918 52.6909 62.1229ZM56.6716 52.3735C56.7472 52.3735 56.8139 52.3735 56.8495 52.4091C56.805 52.3869 56.7383 52.3869 56.636 52.3869C56.6494 52.3735 56.6583 52.3735 56.6716 52.3735ZM56.4047 56.6967C56.4181 56.7189 56.3958 56.7323 56.3958 56.7501C56.3958 56.7189 56.3958 56.6745 56.3736 56.6522C56.3958 56.6522 56.3825 56.6834 56.4047 56.6967ZM55.1594 57.0747C55.1594 57.0747 55.1727 57.0881 55.1594 57.097C55.146 57.0881 55.146 57.0747 55.146 57.0747H55.1594ZM55.8933 64.6714L55.8799 64.6581H55.8933V64.6714ZM56.2357 71.4186C56.258 71.3963 56.258 71.3296 56.2802 71.2851C56.2802 71.2718 56.2936 71.2718 56.3024 71.2629C56.3024 71.343 56.2802 71.4097 56.2357 71.4186ZM56.6938 63.435C56.6938 63.644 56.427 63.8041 56.427 63.8041C55.9511 63.8575 55.4618 63.8575 54.9815 63.9153C54.9815 63.5373 54.7146 61.6247 54.6568 61.1933V60.0725C54.6568 59.2719 54.5011 58.5291 55.1905 58.418C55.8354 58.418 56.3692 58.5825 56.9563 58.7382C56.9563 60.0191 56.9563 61.3045 57.0141 62.5854C57.0141 62.5854 56.8495 63.1725 56.6894 63.4394L56.6938 63.435ZM57.748 61.7893C57.6812 61.8027 57.6145 61.8027 57.5478 61.8027V61.7804H57.8147C57.7835 61.7804 57.7702 61.7938 57.748 61.7938V61.7893ZM59.1178 53.2497C59.1178 53.2497 59.1312 53.2275 59.1312 53.2141C59.1401 53.2008 59.1623 53.1919 59.1757 53.183C59.1623 53.2053 59.1401 53.2141 59.1178 53.2497ZM59.149 53.1741C59.1712 53.1519 59.2023 53.1207 59.2023 53.0718H59.2157C59.2157 53.1296 59.1801 53.1519 59.149 53.1741Z" fill="white"/>
<path d="M75.8056 70.8404V70.8626H75.8145L75.8056 70.8404ZM86.9693 75.1902C85.4215 75.1902 83.8782 75.2347 82.3304 75.2347C81.1517 75.2347 78.3141 74.9234 78.3141 74.9234C78.2163 74.6031 78.1051 74.3318 78.0028 74.065C78.0028 70.6981 77.9449 67.2822 77.9449 63.9153C78.2696 62.4698 78.2696 61.6692 78.2696 60.4461C78.2696 59.8012 78.3675 58.7916 77.9449 58.2C77.9449 57.6085 78.2118 54.7308 78.2118 54.0859V50.0518C78.2118 48.6641 78.3097 48.2416 77.8871 47.0052C77.8871 46.7961 77.6203 46.5826 77.6203 46.5826C77.3534 46.636 77.1444 46.636 76.8775 46.636C76.7085 46.636 76.0191 46.5248 75.8545 47.1119C75.0095 47.1653 74.1555 47.2142 73.2971 47.2676C73.1281 47.2676 72.5499 46.8984 72.3853 46.8984C72.283 46.8984 71.5269 47.1653 71.2645 47.4321C71.1622 47.53 71.0555 47.699 70.9976 47.7968V57.2793C70.9976 57.5017 70.7308 59.5254 70.7308 59.7345C70.7308 60.9131 70.7886 62.1496 70.7886 63.3149C70.4639 63.5817 70.4639 63.7508 70.4639 63.9598V64.1688C70.5751 64.28 70.673 64.4357 70.7886 64.5469V66.9486C70.7886 67.1577 70.4639 69.1369 70.4639 69.3504C70.4639 69.7729 70.4639 70.2088 70.5217 70.5824C70.4106 70.8493 70.3082 71.1161 70.1971 71.383C70.1971 72.1836 70.2504 72.9842 70.2504 73.7848C70.3083 74.1094 70.4061 74.3763 70.5173 74.6432V77.8455C70.6285 78.1124 70.7263 78.3792 70.842 78.5883C70.7308 78.9085 70.6285 79.1798 70.5173 79.4467C70.5707 80.5141 70.5707 81.5816 70.5707 82.649C70.246 82.8581 70.246 83.0271 70.3038 83.2361V83.503C70.3038 83.6587 70.7263 84.2502 70.8953 84.2502H71.1622C71.3179 84.3614 71.5314 84.5171 71.6959 84.6282H72.8657C73.0302 84.6282 73.1904 84.8373 73.1904 85.1042H75.4943C75.6499 85.2153 75.859 85.3132 76.028 85.4822H76.3527C77.2066 85.4822 77.7848 84.6238 78.6432 84.6238C79.346 84.6238 80.0887 85.0997 80.7781 85.0997H81.2096C81.3652 85.0997 82.2236 84.6238 82.3304 84.6238H85.5327C85.8574 84.6238 86.8092 84.2458 86.9693 84.2458C87.0805 84.0367 87.512 83.6142 87.512 83.4452V77.6765C87.2451 77.0449 87.0805 76.0219 86.9693 75.1769V75.1902ZM72.7367 70.5202C72.6922 70.4979 72.6566 70.409 72.6566 70.3333C72.6566 70.2889 72.6922 70.2133 72.7367 70.1866C72.67 70.2399 72.67 70.4623 72.7367 70.5202ZM74.4713 64.5246C74.4846 64.5024 74.4846 64.4802 74.4846 64.4446H74.5069C74.4935 64.4757 74.4846 64.4891 74.4713 64.5246ZM83.767 78.1257C83.7803 78.0457 83.8115 77.9923 83.847 77.9789C83.8915 77.9256 83.9449 77.9122 83.9805 77.9434C84.0027 77.9434 84.0161 77.9567 84.025 77.9789C84.0383 77.9789 84.0383 77.9923 84.0472 78.0012C84.0561 78.0101 84.0605 78.0323 84.0605 78.0457V78.059L84.0739 78.0723C84.0739 78.0723 84.0872 78.0946 84.0961 78.1257C84.0961 78.3348 83.7714 78.3348 83.7714 78.1257H83.767ZM85.804 79.3132C85.7818 79.3266 85.7818 79.2999 85.7685 79.2688C85.7907 79.2821 85.804 79.291 85.804 79.291V79.3132Z" fill="white"/>
<path d="M108.825 49.6293C108.67 47.6145 107.318 45.6308 105.957 45.1505L104.773 45.1816C104.444 45.1905 102.287 44.7769 102.007 44.7857L96.4874 44.9281C96.0471 45.2261 95.4333 45.4218 94.9885 45.9511C94.7217 46.1245 94.1212 46.8406 94.1212 46.8406C93.9522 47.0719 93.4363 48.8776 93.2317 49.5804C93.1205 49.8117 92.9871 51.0881 92.996 51.3772C93.0049 51.7731 93.4363 55.3446 93.4496 55.8116L93.4941 57.5907C93.6765 64.6892 93.5742 71.6232 93.7565 78.7706C93.7788 79.6958 93.9789 81.0256 94.4548 81.6972C94.8551 82.2621 95.2687 82.8314 95.7313 83.4541C96.0249 83.8544 96.9455 84.695 96.9455 84.695L99.3695 84.6327C99.5341 84.6327 100.731 85.0552 100.891 85.0508L101.513 85.033C101.794 85.0241 103.613 85.4466 103.951 85.4377L106.646 85.3666C108.278 85.0864 109.15 81.8885 109.275 79.927C109.252 79.0642 109.435 75.2481 109.417 74.5498L109.212 66.5884C109.315 66.4194 109.426 66.2459 109.484 66.1258C109.452 64.8538 109.479 63.5906 109.444 62.3186C109.328 57.8753 109.23 54.0681 108.825 49.6337V49.6293ZM95.7224 61.3312C95.7446 61.3312 95.7313 61.2956 95.758 61.2823H95.7802C95.7802 61.2823 95.7802 61.3312 95.7224 61.3312ZM95.7224 46.7917C95.7224 46.8406 95.6913 46.8628 95.6646 46.9029C95.7002 46.8406 95.7091 46.7561 95.6824 46.6983C95.7046 46.7205 95.718 46.7472 95.718 46.7828V46.7961L95.7224 46.7917ZM97.9596 53.103C97.9685 53.054 97.9907 53.0051 97.9907 52.9695C97.9907 52.885 97.9729 52.8139 97.9507 52.7783C97.9863 52.8005 97.9996 52.8361 98.013 52.8984C98.013 52.9206 98.0263 52.9339 98.0263 52.9473C98.0174 53.0184 97.9952 53.0674 97.9596 53.1074V53.103ZM102.127 48.6686C102.163 48.7042 102.189 48.7398 102.189 48.7976C102.189 48.8109 102.203 48.8109 102.203 48.8198C102.203 48.8776 102.158 48.9177 102.136 48.9532C102.145 48.9043 102.167 48.8821 102.167 48.8065C102.167 48.7709 102.154 48.6997 102.127 48.6641V48.6686ZM99.9833 49.7449C99.9833 49.7939 99.9744 49.8294 99.9522 49.8561C99.9522 49.8784 99.9433 49.9051 99.9166 49.9051C99.9077 49.9273 99.881 49.9406 99.8721 49.9406C99.8365 49.9673 99.801 49.954 99.7654 49.9406C99.7431 49.9406 99.7298 49.9317 99.7164 49.9051C99.6942 49.8917 99.6942 49.8828 99.6809 49.8561C99.6675 49.8428 99.6675 49.8205 99.6675 49.8072C99.6542 49.7939 99.6542 49.7716 99.6542 49.7494C99.6497 49.5715 99.9789 49.5626 99.9833 49.7405V49.7449ZM103.408 79.7847C103.408 79.7847 103.408 79.7491 103.395 79.7269C103.395 79.7402 103.408 79.7491 103.408 79.7491V79.7847ZM103.355 62.243C103.364 62.6388 103.106 65.77 103.177 66.2237C103.243 68.7589 103.248 71.3029 103.315 73.8381C102.892 74.7143 102.269 74.7321 101.709 74.7455L100.971 74.7633C100.971 74.7633 100.579 74.5453 100.619 74.314C100.45 74.1361 100.148 73.2332 99.9744 72.9975L99.7921 65.8501C99.7031 62.3319 99.414 58.0621 99.7743 54.2416C99.921 53.5522 100.713 53.819 100.833 53.819C101.455 53.8012 102.518 53.7746 102.883 54.633C102.91 55.7271 103.319 60.6196 103.346 61.7715L103.359 62.2385L103.355 62.243ZM104.814 77.552L104.8 77.5386C104.8 77.5386 104.8 77.5253 104.814 77.5253V77.552ZM104.387 58.6359C104.364 58.6359 104.387 58.6003 104.387 58.587C104.4 58.6003 104.4 58.6359 104.422 58.6359H104.387ZM104.56 63.0747L104.569 63.0525C104.569 63.0302 104.569 63.0035 104.578 62.9902C104.587 62.968 104.6 62.9546 104.613 62.9546C104.627 62.9413 104.636 62.9279 104.658 62.9279C104.693 62.9012 104.729 62.9012 104.765 62.9279C104.787 62.9146 104.8 62.9279 104.814 62.9368C104.827 62.9368 104.849 62.9457 104.849 62.9724C104.885 62.9813 104.898 63.0213 104.898 63.0658C104.902 63.2926 104.564 63.3015 104.56 63.0747Z" fill="white"/>
<path d="M131.3 63.435C131.3 63.0569 132.265 62.1006 132.265 61.6692C132.265 61.4602 133.065 59.0006 133.123 58.7916V55.8027C133.123 54.8464 132.856 52.4358 132.798 52.2801C132.798 52.0711 132.211 50.2475 131.887 49.6115C131.197 48.0548 130.45 47.3654 129.329 46.8895C129.005 46.8317 126.874 45.8221 126.492 45.7687C126.394 45.7687 125.691 45.2928 125.535 45.2928C123.765 45.1816 121.955 45.0704 120.189 44.9681C120.034 44.9681 118.753 45.3373 118.588 45.3373C117.952 45.2928 117.307 45.2928 116.667 45.235C116.511 45.235 116.031 45.9244 116.031 46.1468C116.031 46.725 115.706 50.3587 115.706 50.9503C115.706 53.4632 115.648 55.9628 115.648 58.4758C115.648 60.0769 115.915 72.8952 115.915 74.443V81.2258C115.915 81.4481 116.071 82.3466 116.293 82.569C116.293 82.569 116.982 83.2584 117.151 83.414C118.108 84.1123 118.588 83.8499 119.553 83.8499C120.354 83.8499 120.941 84.1168 121.577 83.414C121.786 83.2584 122.377 82.3466 122.547 82.0797C123.022 81.4481 122.867 81.0123 122.867 80.1583C122.867 77.7566 122.591 74.8211 122.591 72.3659C122.591 71.89 122.591 71.6765 122.867 71.4542C123.08 71.2451 124.148 70.8226 124.512 70.6536H124.624C124.833 70.6536 125.002 70.6536 125.099 71.1428C125.099 71.2985 125.802 72.2103 125.802 72.4193C125.802 73.0509 126.114 77.334 126.114 78.188V83.0449C126.225 83.414 126.701 83.9033 127.025 83.9033C127.35 83.9033 129.48 84.3258 129.805 84.3258C130.397 84.2724 130.984 84.2724 131.62 84.2146H131.944C133.443 84.2146 132.634 82.4044 132.634 80.6476V79.6246C132.634 78.9352 132.367 74.0783 132.323 73.3756C132.367 72.0991 132.367 70.8181 132.367 69.5283C132.367 69.3193 132.113 67.6158 132.113 67.3489C132.113 67.1844 131.304 65.7922 131.304 65.5832C131.095 65.3163 130.828 65.0495 130.615 64.7248V64.2489C130.824 63.982 131.091 63.7152 131.304 63.4483L131.3 63.435ZM117.725 82.1598C117.725 82.1375 117.703 82.1242 117.703 82.1064C117.703 82.0931 117.716 82.0842 117.716 82.0708C117.73 82.0263 117.752 82.0041 117.774 81.973C117.739 82.0175 117.73 82.0708 117.73 82.1598H117.725ZM125.486 61.0332C125.375 61.1889 125.277 61.3001 125.162 61.4557C124.419 61.4557 123.672 61.4024 122.916 61.4024C122.813 61.3579 122.324 60.922 122.324 60.922C122.324 58.6759 122.324 56.4877 122.382 54.2505C122.382 54.2505 122.813 53.8724 122.973 53.8724C123.716 53.9258 124.477 53.9836 125.162 53.9836C125.273 54.1393 125.371 54.2505 125.486 54.4061C125.864 55.7404 125.864 56.4387 125.864 57.773C125.864 59.1073 125.807 59.6944 125.486 61.0288V61.0332Z" fill="white"/>
<path d="M153.841 76.8448C153.841 76.6224 153.529 76.0353 153.529 76.0353C152.195 76.0353 150.861 75.9908 149.517 75.933C149.517 75.7684 149.095 75.5549 148.984 75.5549C148.828 75.5549 147.382 75.8752 147.227 75.8752C147.116 75.8752 147.058 75.8218 146.96 75.8218V75.1324C146.791 74.3318 146.368 73.5312 146.368 72.7307V72.406C146.368 72.406 146.844 71.9701 146.96 71.9701C147.28 71.8144 147.97 71.6588 148.139 71.6588C149.575 71.7032 151.021 71.8144 152.466 71.8678C153 71.5431 153 69.9998 153 69.2437C153 68.8745 153 68.4431 153.044 68.0739C153.044 67.7537 152.778 65.8278 152.778 65.4498C152.778 65.2941 152.511 64.4935 152.511 64.3378C152.199 63.902 151.932 63.5284 151.666 63.1058C151.497 62.8968 151.176 62.6833 151.074 62.6833C150.216 62.6299 149.304 62.5721 148.45 62.5143C148.027 62.4609 147.062 61.9806 147.062 61.9806C147.062 61.9806 146.907 61.2378 146.907 61.0243C146.907 60.8553 147.062 60.0592 147.062 60.0592C147.062 60.0592 147.921 59.7345 148.241 59.7923C149.744 59.9035 151.288 60.0592 152.835 60.1703C152.947 60.2237 153.422 60.0058 153.422 59.7923C153.689 59.3119 153.689 58.3557 153.689 57.604V56.8613C153.689 56.7056 153.422 55.905 153.422 55.6826C153.48 54.1926 153.48 52.6938 153.48 51.146C153.369 51.0348 153.271 50.8791 153.156 50.7679C150.376 50.3988 147.596 50.0785 144.829 49.8117C144.505 49.7583 141.627 49.865 141.36 49.8117C140.871 49.7583 140.391 49.7583 139.915 49.7005C139.75 49.7005 139.648 49.865 139.648 50.0207C139.537 51.0881 139.439 52.1556 139.323 53.223C139.265 58.5692 139.212 63.9642 139.212 69.3548C139.212 69.5105 138.945 69.9464 138.901 70.0976V70.5335C138.901 70.6892 139.154 71.8678 139.154 72.1347V76.4578C139.154 77.0449 139.43 80.9367 139.43 81.5282C139.43 81.7373 139.105 83.2939 139.105 83.5074V83.8855C139.105 84.308 139.105 84.5171 139.43 84.6861C139.795 84.8951 141.565 85.1086 141.987 85.1086H149.468C149.735 85.4867 150.158 85.4867 150.589 85.4867C151.603 85.4867 152.613 85.2643 153.738 85.1086C154.063 83.3962 154.063 82.4978 154.063 80.7854V78.7039C154.121 78.4815 153.952 77.205 153.841 76.8359V76.8448ZM139.764 79.3933C139.772 79.3711 139.772 79.3266 139.786 79.2821C139.817 79.2599 139.853 79.251 139.853 79.1932C139.853 79.2821 139.808 79.38 139.764 79.3933ZM139.973 74.0783C139.973 74.0783 139.959 74.0783 139.959 74.065H139.981C139.981 74.065 139.981 74.0783 139.968 74.0783H139.973ZM140.008 74.1228C140.008 74.1005 139.995 74.1005 139.995 74.1005L140.008 74.0872V74.1228ZM142.099 63.9909C141.956 63.9776 141.809 63.9776 141.667 63.9687H142.099V63.9909Z" fill="white"/>
<path d="M176.813 66.9042C176.813 66.5839 177.725 65.8367 177.725 65.4587C177.769 65.303 178.525 63.3238 178.583 63.1681V60.6018C178.583 59.859 178.258 57.8353 178.258 57.6663C178.258 57.5106 177.667 55.9095 177.347 55.2645C176.702 53.9302 175.959 53.2853 174.834 52.6982C174.513 52.6537 172.379 51.4751 172.009 51.4173C171.898 51.3639 171.262 50.8836 171.098 50.8302C169.341 50.5055 167.517 50.2386 165.76 49.9317C165.596 49.8739 164.373 50.0874 164.159 50.0874C163.568 49.9762 162.923 49.8784 162.282 49.7672C162.069 49.7672 161.646 50.2431 161.646 50.4655C161.646 50.9992 161.322 54.2015 161.322 54.7353C161.264 56.9813 161.264 59.2141 161.21 61.4068C161.21 62.8523 161.433 74.2829 161.433 75.6706C161.433 77.6498 161.379 79.6735 161.379 81.6527C161.379 81.8618 161.535 82.6668 161.749 82.8759C161.749 82.8759 162.505 83.463 162.66 83.632C163.572 84.2635 164.048 84.0545 165.009 84.0545C165.818 84.0545 166.454 84.2635 167.041 83.6764C167.197 83.5208 167.842 82.778 167.998 82.5111C168.487 81.9774 168.322 81.5994 168.322 80.8566C168.322 78.7662 168.055 76.2088 168.109 74.0739C168.109 73.6958 168.109 73.4868 168.376 73.2733C168.585 73.1043 169.652 72.784 169.977 72.6817H170.141C170.297 72.6817 170.453 72.6817 170.564 73.1043C170.564 73.2155 171.307 74.0694 171.307 74.2251C171.307 74.8166 171.631 78.4504 171.631 79.251C171.573 80.6387 171.573 82.0175 171.573 83.4096C171.685 83.7298 172.165 84.1079 172.543 84.1079C172.81 84.1079 174.945 84.477 175.265 84.477C175.857 84.477 176.435 84.4326 177.075 84.4326H177.4C178.89 84.4326 178.089 82.9337 178.089 81.4437V80.5897C178.089 79.9982 177.765 75.8885 177.765 75.3548C177.765 74.2874 177.823 73.1665 177.823 72.0991C177.823 71.9434 177.556 70.4979 177.556 70.231C177.556 70.1199 176.755 68.8967 176.755 68.7277C176.542 68.4609 176.333 68.194 176.066 67.985V67.5624C176.333 67.3534 176.542 67.1266 176.808 66.9175L176.813 66.9042ZM163.345 82.6624V82.6401C163.359 82.6268 163.345 82.6045 163.345 82.5957C163.39 82.5378 163.39 82.4711 163.345 82.4044C163.345 82.3911 163.359 82.3822 163.345 82.3733C163.345 82.3599 163.359 82.351 163.345 82.3377C163.399 82.3377 163.456 82.3911 163.456 82.5067C163.456 82.6046 163.399 82.6624 163.345 82.6624ZM170.986 64.449C170.884 64.5602 170.777 64.6581 170.675 64.7693C169.919 64.7159 169.176 64.6136 168.429 64.5602C168.318 64.5069 167.895 64.0843 167.842 64.0843C167.895 62.1629 167.895 60.2371 167.895 58.3157C167.895 58.3157 168.376 57.9954 168.487 58.0488C169.234 58.1466 169.977 58.2578 170.72 58.369C170.831 58.4713 170.942 58.5781 171.044 58.7382C171.369 59.9168 171.369 60.5039 171.369 61.6292C171.311 62.7989 171.369 63.3327 170.991 64.4535L170.986 64.449Z" fill="white"/>
<path d="M195.791 79.4244C195.791 79.4244 195.778 79.4467 195.769 79.46C195.791 79.4467 195.805 79.4378 195.813 79.4156C195.813 79.4156 195.8 79.4156 195.791 79.4289V79.4244ZM197.806 60.922C197.214 60.3883 196.783 59.9658 196.094 59.6989C195.026 59.432 194.012 59.2096 192.945 59.0006C191.121 58.6314 189.097 58.1022 187.287 58.2C186.967 58.0977 186.166 58.2534 186.166 58.2534C185.997 58.2534 185.41 58.8983 185.255 59.054C184.832 59.5877 184.552 60.0681 184.396 60.8108C184.396 63.5906 184.396 66.4238 184.338 69.2036C184.338 69.3593 184.503 70.9605 184.605 71.4942C184.605 71.6632 184.93 72.4593 184.93 72.4593C185.041 72.6684 185.731 73.6825 186.051 73.847C186.051 73.847 186.473 74.1584 186.584 74.1584C186.909 74.3808 187.652 74.6476 187.763 74.6476C188.622 74.6921 192.62 75.337 193.478 75.3904V79.6024C192.513 79.5579 191.557 79.5045 190.587 79.4467C190.587 79.4467 190.321 79.2777 190.321 79.1798V77.8989C190.321 77.7299 189.996 77.254 189.996 77.254C189.894 77.0983 189.195 76.9337 188.884 76.8759C187.541 76.8314 186.206 76.7202 184.868 76.6669C184.445 77.0983 184.601 77.5786 184.543 78.0545C184.543 79.6557 184.712 81.5771 184.868 83.0226C184.868 83.5564 185.401 84.0367 185.668 84.3569C186.958 85.4778 188.559 85.3132 190.16 85.3132H192.295C193.038 85.3132 196.031 85.0463 196.618 85.0463C196.618 85.0463 197.321 84.8907 197.477 84.7261C197.899 84.5704 198.656 84.1479 198.656 83.5608V71.7522C198.277 71.3296 197.899 70.8982 197.535 70.4757C197.366 70.4223 197.099 70.151 196.943 70.0976C196.298 70.0442 193.527 69.3549 192.94 69.297C192.184 69.1947 190.374 68.6655 190.374 68.6655V64.6536C191.117 64.7648 191.917 64.876 192.673 65.0317C193.096 65.0851 193.363 67.2778 193.785 67.3311C195.395 67.5402 197.054 67.807 198.656 68.0205C198.753 67.9672 198.811 67.8649 198.922 67.7537V66.0413C198.922 64.498 199.189 62.3631 197.802 60.9176L197.806 60.922ZM195.938 79.291C195.938 79.3132 195.916 79.3444 195.871 79.38C195.894 79.3444 195.902 79.3266 195.916 79.2999C195.916 79.2999 195.923 79.2955 195.938 79.2866V79.291ZM195.769 79.4022C195.813 79.4022 195.849 79.3577 195.894 79.3221C195.871 79.3444 195.849 79.3755 195.813 79.4111C195.813 79.4111 195.8 79.4111 195.791 79.4244C195.782 79.4378 195.778 79.4467 195.769 79.46V79.4022ZM192.189 70.0087C192.153 69.9642 192.109 69.9197 192.064 69.8396C192.1 69.8619 192.122 69.8752 192.144 69.9064C192.166 69.9419 192.166 69.9731 192.189 70.0087ZM192.091 69.7863C192.091 69.8308 192.113 69.8308 192.126 69.8663C192.104 69.8308 192.091 69.8308 192.069 69.7996C192.055 69.7996 192.046 69.7996 192.033 69.7863H192.091Z" fill="white"/>
</svg>
