<svg width="226" height="76" viewBox="0 0 226 76" fill="none" xmlns="http://www.w3.org/2000/svg">
<path d="M107.6 41.1513H96.9316L94.279 48.5349H109.168L107.6 41.1513ZM107.6 41.1513H96.9316L94.279 48.5349H109.168L107.6 41.1513ZM107.6 41.1513H96.9316L94.279 48.5349H109.168L107.6 41.1513ZM152.991 41.1513H135.029L134.002 46.9676H151.968C153.776 46.9676 155.103 45.6122 155.373 44.074C155.643 42.5357 154.799 41.1513 152.991 41.1513ZM152.991 41.1513H135.029L134.002 46.9676H151.968C153.776 46.9676 155.103 45.6122 155.373 44.074C155.643 42.5357 154.799 41.1513 152.991 41.1513ZM107.6 41.1513H96.9316L94.279 48.5349H109.168L107.6 41.1513ZM225.768 25.1951C226.467 21.1707 225.556 17.4124 223.244 14.6186C222.6 13.9202 221.901 13.2758 221.153 12.7395C221.045 12.6314 220.937 12.5773 220.829 12.4734C220.721 12.4194 220.617 12.3113 220.509 12.2572C220.4 12.1491 220.292 12.0951 220.13 11.987C220.08 11.9371 219.972 11.829 219.81 11.775C219.702 11.6669 219.648 11.6128 219.486 11.5047C219.382 11.4507 219.274 11.3426 219.166 11.2885C219.057 11.1846 218.949 11.1305 218.845 11.0224C218.737 10.9684 218.629 10.8603 218.521 10.8063C218.413 10.6982 218.305 10.6483 218.197 10.5402C218.093 10.4862 217.985 10.378 217.877 10.324C217.769 10.2159 217.66 10.1619 217.552 10.0538C217.448 10.0039 217.34 9.89579 217.232 9.84174C217.124 9.73365 217.016 9.6796 216.912 9.57151C216.804 9.51746 216.696 9.41352 216.588 9.35948C216.48 9.25138 216.372 9.19734 216.268 9.08925C216.16 9.0352 216.051 8.92711 215.943 8.87306C215.835 8.76913 215.731 8.71508 215.623 8.60698C215.515 8.55294 215.407 8.44485 215.299 8.3908C215.191 8.28271 215.083 8.22867 214.979 8.12473C214.871 8.07069 214.763 7.96259 214.654 7.90854C214.546 7.80045 214.442 7.7464 214.334 7.63831C214.226 7.58842 214.118 7.48032 214.01 7.42628C213.902 7.31818 213.794 7.26414 213.69 7.15605C213.582 7.102 213.474 6.99391 213.366 6.93986C213.262 6.83593 213.153 6.78188 213.045 6.67378C212.937 6.61974 212.829 6.51165 212.721 6.4576C212.613 6.34951 212.509 6.29961 212.401 6.19152C212.293 6.13747 212.185 6.02938 212.077 5.97534C211.973 5.86724 211.865 5.8132 211.756 5.70511C211.648 5.65522 211.54 5.54712 211.432 5.49307C211.328 5.38498 211.22 5.33094 211.112 5.22284C211.004 5.1688 210.896 5.06486 210.792 5.01081C210.684 4.90272 210.576 4.84867 210.468 4.74058C210.359 4.68653 210.251 4.57845 210.143 4.5244C210.039 4.42046 209.931 4.36641 209.823 4.25832C209.715 4.20427 209.607 4.09618 209.499 4.04214C209.391 3.93404 209.287 3.87999 209.179 3.77605C209.071 3.72201 208.962 3.61392 208.858 3.55987C208.75 3.45178 208.642 3.39774 208.534 3.34369C208.426 3.2356 208.318 3.13166 208.214 3.07761C206.064 1.41048 203.325 0.5 200.264 0.5H125.15L125.367 0.982263C124.294 0.716188 123.167 0.5 121.982 0.5H77.4733L76.1844 7.96259L66.1975 0.5H20.1296C12.8285 0.5 6.87045 5.38498 5.6356 12.3653C5.09925 15.3171 5.58155 18.1109 6.87045 20.4182H4.61279L-0.00231934 36.0959L13.2609 45.9739H43.9701C43.9161 46.3481 43.7539 46.6724 43.6999 47.0466C42.7893 52.3057 43.862 57.0867 46.7101 60.4667C47.4044 61.3273 48.2651 62.0798 49.2339 62.7783L62.1728 72.3861C64.8005 74.4274 68.1849 75.5 72.0516 75.5H106.307L108.399 69.5424H113.608L121.392 75.5H148.617L149.956 67.9834H152.75L162.791 75.5H205.686C212.251 75.4376 217.644 70.1951 218.808 63.7345L219.864 57.8933V57.8392L220.617 53.7567L222.009 45.9739L220.829 34.3207C223.406 31.9593 225.124 28.7913 225.768 25.1951ZM166.965 5.07733L168.383 8.57373L167.838 11.617H141.224L140.65 14.9304H165.788L164.732 20.9005H139.599L138.875 24.9665H165.489L164.341 31.5103H129.321L133.358 8.57373L131.94 5.07733H166.965ZM72.9247 24.9665C75.8809 24.9665 78.2009 22.9792 78.7124 20.0274L81.3359 5.07733H87.6349L89.14 8.57373L86.9697 20.7799C85.8554 27.2281 80.7912 31.5103 74.3717 31.5103H58.4267C52.0071 31.5103 48.4813 27.2281 49.5956 20.7799L50.6225 14.9928H59.0295L58.1273 20.0274C57.6159 22.9792 59.2416 24.9665 62.1977 24.9665H72.9247ZM20.2418 14.9928H39.4714C44.6853 14.9928 47.4252 18.5807 46.6145 23.2494C45.7704 27.9515 41.7915 31.5103 36.5776 31.5103H6.10543L8.03463 24.9665H35.8833C37.089 24.9665 38.0245 24.3054 38.2324 23.1289C38.4445 21.8941 37.8125 21.2622 36.5153 21.2622H17.2856C12.0718 21.2622 9.29858 17.8864 10.1426 13.1843C10.9575 8.48226 14.9365 5.07733 20.1503 5.07733H60.8049L60.202 8.60283L59.6573 11.6461H20.8447C19.5766 11.6461 18.7034 12.2822 18.5205 13.334C18.3126 14.39 18.9155 14.9928 20.2418 14.9928ZM77.8226 61.0446H58.7717C51.2379 61.0446 46.7766 55.8894 48.1944 47.8406C49.5498 40.0662 55.9112 34.6117 63.4451 34.6117H84.845L86.2005 37.9584L85.0571 41.1513H64.3806C60.4016 41.1513 57.3539 43.5003 56.6014 47.8406C55.8779 51.8484 58.0483 54.5008 62.0273 54.5008H80.2008L77.8226 61.0446ZM111.85 61.0446L110.586 55.0746H91.9257L89.8177 61.0446H80.837L89.2148 37.9584L87.8594 34.6117H115.047L120.83 61.0446H111.85ZM118.527 24.5466H98.6654L97.4597 31.5103H89.0527L93.0899 8.57373L91.6721 5.07733H121.966C127.329 5.07733 130.676 9.11419 129.649 14.8099C128.655 20.5388 123.895 24.5466 118.527 24.5466ZM152.508 61.0446L149.224 53.5072H132.859L131.533 61.0446H123.121L127.163 38.1081L125.745 34.6117H156.038C161.402 34.6117 164.745 38.4989 163.78 44.074C163.119 47.8115 160.766 50.7674 157.693 52.3306L161.373 61.0446H152.508ZM203.204 41.1513H176.561C175.297 41.1513 174.42 41.8165 174.241 42.8393C174.062 43.9243 174.632 44.5272 175.958 44.5272H195.217C200.435 44.5272 203.146 48.0818 202.331 52.7838C201.487 57.4859 197.508 61.0446 192.294 61.0446H164.387L161.61 54.5008H191.6C192.805 54.5008 193.741 53.8398 193.953 52.6342C194.165 51.4285 193.529 50.7966 192.236 50.7966H173.006C167.792 50.7966 165.019 47.3916 165.863 42.6896C166.674 38.0166 170.653 34.6117 175.867 34.6117H204.381L203.204 41.1513ZM208.014 14.5396C207.353 18.2772 205 21.2331 201.928 22.7963L205.574 31.5103H196.743L193.458 23.9728H177.06L175.734 31.5103H167.356L171.393 8.57373L169.979 5.07733H200.269C205.603 5.07733 208.979 8.96453 208.014 14.5396ZM197.225 11.617H179.259L178.237 17.4332H196.202C198.007 17.4332 199.333 16.0779 199.607 14.5396C199.878 13.0055 199.034 11.617 197.225 11.617ZM152.991 41.1513H135.029L134.002 46.9676H151.968C153.776 46.9676 155.103 45.6122 155.373 44.074C155.643 42.5357 154.799 41.1513 152.991 41.1513ZM96.9316 41.1513L94.279 48.5349H109.168L107.6 41.1513H96.9316ZM107.6 41.1513H96.9316L94.279 48.5349H109.168L107.6 41.1513ZM152.991 41.1513H135.029L134.002 46.9676H151.968C153.776 46.9676 155.103 45.6122 155.373 44.074C155.643 42.5357 154.799 41.1513 152.991 41.1513ZM152.991 41.1513H135.029L134.002 46.9676H151.968C153.776 46.9676 155.103 45.6122 155.373 44.074C155.643 42.5357 154.799 41.1513 152.991 41.1513ZM107.6 41.1513H96.9316L94.279 48.5349H109.168L107.6 41.1513ZM107.6 41.1513H96.9316L94.279 48.5349H109.168L107.6 41.1513ZM107.6 41.1513H96.9316L94.279 48.5349H109.168L107.6 41.1513Z" fill="white"/>
<path d="M121.271 14.8103C120.972 16.4982 119.612 18.0073 117.804 18.0073H99.842L100.956 11.6173H118.918C120.76 11.6173 121.541 13.1223 121.271 14.8103Z" fill="white"/>
</svg>
