<svg xmlns="http://www.w3.org/2000/svg" xmlns:xlink="http://www.w3.org/1999/xlink" viewBox="0 0 2078.56 577.63"><defs><style>.cls-1{fill:#ea4230;}.cls-11,.cls-2{fill:#fff;}.cls-3{fill:#cfcfe5;}.cls-4,.cls-8{fill:#1a272e;}.cls-5,.cls-6{fill:#8d8db1;}.cls-5{opacity:0.28;}.cls-7{fill:#bdbdd8;}.cls-8{opacity:0.33;}.cls-9{clip-path:url(#clip-path);}.cls-10{fill:#c1271b;}.cls-11{opacity:0.32;}.cls-12{clip-path:url(#clip-path-2);}.cls-13{fill:#f1bf46;}</style><clipPath id="clip-path"><path class="cls-1" d="M1715.21,220h18.39a20.89,20.89,0,0,1,20.89,20.89V528.23a0,0,0,0,1,0,0h-60.17a0,0,0,0,1,0,0V240.85A20.89,20.89,0,0,1,1715.21,220Z"/></clipPath><clipPath id="clip-path-2"><circle class="cls-2" cx="1724.4" cy="286.04" r="44.72" transform="translate(21.8 681.67) rotate(-22.5)"/></clipPath></defs><g id="Layer_2" data-name="Layer 2"><g id="Layer_1-2" data-name="Layer 1"><ellipse class="cls-3" cx="1254.88" cy="548.37" rx="823.68" ry="29.26"/><path class="cls-4" d="M1114.46,334.75c0,240.28-134.69,219.64-300.83,219.64s-300.84,12-300.84-219.64c0-166.15,134.69-260.49,300.84-260.49S1114.46,168.6,1114.46,334.75Z"/><path class="cls-5" d="M831.56,97.18S581.27,74.26,561.85,378.61c0,0-19.57,181.33,251.78,175.78,0,0,231.82,8.87,243.2-141.62C1067.36,273.41,1055.91,111.94,831.56,97.18Z"/><circle class="cls-6" cx="813.62" cy="316.82" r="219.64" transform="translate(14.28 668.11) rotate(-45)"/><circle class="cls-7" cx="813.62" cy="316.82" r="202.29" transform="translate(14.28 668.11) rotate(-45)"/><path class="cls-4" d="M813.38,143h36.07a7.63,7.63,0,0,1,7.12,10.39L837,204.05,820.5,246.67a7.63,7.63,0,0,1-14.24,0l-16.49-42.62L770.18,153.4A7.64,7.64,0,0,1,777.31,143Z"/><path class="cls-4" d="M813.38,489.09H777.31a7.64,7.64,0,0,1-7.13-10.39l19.59-50.65,16.49-42.63a7.63,7.63,0,0,1,14.24,0L837,428.05l19.58,50.65a7.63,7.63,0,0,1-7.12,10.39Z"/><path class="cls-4" d="M935.74,193.69l25.5,25.51a7.63,7.63,0,0,1-2.31,12.38l-49.66,22L867.47,272A7.63,7.63,0,0,1,857.4,262l18.48-41.8,22-49.67a7.65,7.65,0,0,1,12.39-2.31Z"/><path class="cls-4" d="M691,438.4l-25.51-25.5a7.65,7.65,0,0,1,2.31-12.39l49.67-22,41.8-18.48a7.63,7.63,0,0,1,10.07,10.07l-18.48,41.79-22,49.67a7.63,7.63,0,0,1-12.38,2.31Z"/><path class="cls-4" d="M986.42,316.05v36.07A7.63,7.63,0,0,1,976,359.24l-50.65-19.59-42.63-16.48a7.64,7.64,0,0,1,0-14.25l42.63-16.48L976,272.85A7.64,7.64,0,0,1,986.42,280Z"/><path class="cls-4" d="M640.34,316.05V280a7.64,7.64,0,0,1,10.39-7.12l50.65,19.59L744,308.92a7.64,7.64,0,0,1,0,14.25l-42.62,16.48-50.65,19.59a7.63,7.63,0,0,1-10.39-7.12Z"/><path class="cls-4" d="M935.74,438.4l-25.51,25.51a7.64,7.64,0,0,1-12.39-2.31l-22-49.67L857.4,370.14a7.63,7.63,0,0,1,10.07-10.07l41.8,18.48,49.66,22a7.64,7.64,0,0,1,2.31,12.39Z"/><path class="cls-4" d="M691,193.69l25.51-25.51a7.64,7.64,0,0,1,12.38,2.31l22,49.67L769.36,262A7.64,7.64,0,0,1,759.29,272l-41.8-18.49-49.67-22a7.64,7.64,0,0,1-2.31-12.38Z"/><circle class="cls-4" cx="813.62" cy="316.82" r="43.4" transform="translate(318.35 1035.89) rotate(-76.72)"/><circle class="cls-2" cx="813.62" cy="316.82" r="17.93"/><path class="cls-5" d="M647.46,136.24s-127.21,98.45-104.12,235.2C543.34,371.44,494.07,232,647.46,136.24Z"/><path class="cls-5" d="M1041.19,186.59s47.16,77.77,43.85,213.47C1085,400.06,1108.21,257.75,1041.19,186.59Z"/><path d="M1399.82,442.07H1164.34V323.32L1407.89,0h116.75V320.94h80.68V442.07h-80.68V554.83H1399.82Zm0-246.16-92,125h92Z"/><path d="M235.48,442.07H0L16.55,323.32,260.1,0H360.3V320.94H441V442.07H360.3V554.83H235.48Zm0-246.16-92,125h92Z"/><rect class="cls-7" x="1717.38" y="99.7" width="14.05" height="140.61"/><rect class="cls-4" x="1648.87" y="86.92" width="149.03" height="12.78"/><rect class="cls-4" x="1647.05" y="83.37" width="7.1" height="19.89" rx="1.93"/><rect class="cls-4" x="1794.35" y="83.37" width="7.1" height="19.89" rx="1.93"/><rect class="cls-7" x="1707.6" y="84.68" width="33.13" height="17.27"/><polygon class="cls-8" points="1717.38 101.95 1731.43 101.95 1717.38 109.77 1717.38 101.95"/><path class="cls-1" d="M1715.21,220h18.39a20.89,20.89,0,0,1,20.89,20.89V528.23a0,0,0,0,1,0,0h-60.17a0,0,0,0,1,0,0V240.85A20.89,20.89,0,0,1,1715.21,220Z"/><g class="cls-9"><rect class="cls-10" x="1724.16" y="211.06" width="41.4" height="328.78"/></g><path class="cls-4" d="M1776.3,552.77H1673.66a25.86,25.86,0,0,1,25.86-25.86h50.92a25.86,25.86,0,0,1,25.86,25.86Z"/><rect class="cls-4" x="1665.99" y="551.29" width="117.69" height="7.22" rx="1.88"/><rect class="cls-4" x="1705.41" y="211.06" width="37.99" height="12.34" rx="4.82"/><path class="cls-11" d="M1708.76,390.65h0a6,6,0,0,1-6-6V344a6,6,0,0,1,6-6h0a6,6,0,0,1,6,6v40.67A6,6,0,0,1,1708.76,390.65Z"/><path class="cls-11" d="M1708.76,410.19h0a6,6,0,0,1-6-6v-4.15a6,6,0,0,1,6-6h0a6,6,0,0,1,6,6v4.15A6,6,0,0,1,1708.76,410.19Z"/><circle class="cls-4" cx="1724.4" cy="286.04" r="51" transform="translate(1165.83 1942.36) rotate(-80.78)"/><circle class="cls-2" cx="1724.4" cy="286.04" r="44.72" transform="translate(21.8 681.67) rotate(-22.5)"/><g class="cls-12"><path class="cls-7" d="M1751.86,247.22s1.64,60.16-54,78.25c0,0,40,25.64,71.31-8.72S1751.86,247.22,1751.86,247.22Z"/></g><circle class="cls-4" cx="1724.83" cy="286.04" r="7.04"/><rect class="cls-4" x="1723.57" y="247.22" width="2.53" height="12.1"/><rect class="cls-4" x="1723.57" y="313.37" width="2.53" height="12.1"/><rect class="cls-4" x="1756.64" y="280.3" width="2.53" height="12.1" transform="translate(2044.26 -1471.56) rotate(90)"/><rect class="cls-4" x="1690.49" y="280.3" width="2.53" height="12.1" transform="translate(1978.1 -1405.41) rotate(90)"/><rect class="cls-4" x="1746.96" y="256.91" width="2.53" height="12.1" transform="translate(697.98 -1159.16) rotate(45)"/><rect class="cls-4" x="1700.18" y="303.69" width="2.53" height="12.1" transform="translate(717.36 -1112.38) rotate(45)"/><rect class="cls-4" x="1746.96" y="303.69" width="2.53" height="12.1" transform="translate(3203.42 -707.43) rotate(135)"/><rect class="cls-4" x="1700.18" y="256.91" width="2.53" height="12.1" transform="translate(3090.49 -754.21) rotate(135)"/><polygon class="cls-13" points="1741.16 270.02 1725.9 282.02 1724.83 286.35 1729.16 285.28 1741.16 270.02"/><rect class="cls-4" x="803.91" y="499.68" width="19.43" height="19.43"/><path class="cls-1" d="M1420.2,529.15c-39.44,0-76.7-10.93-113.9-33.41-32.9-19.88-61.7-45.78-92.19-73.2-58.88-53-119.76-107.72-211.58-114.22-49.64-3.53-90.25,8.95-120.72,37.06C822,400.6,820.38,498.75,820.37,499.74l-13.49-.12c0-1.07.31-26.49,8.45-59.43,7.57-30.6,23.65-73.6,57.27-104.67,33.31-30.78,77.35-44.46,130.88-40.66,96.45,6.83,159.08,63.17,219.65,117.64,59,53.05,114.69,103.15,197.07,103.15,95.75,0,138.77-19.6,173.33-35.36,26.55-12.1,49.49-22.55,86.79-19.63l-1,13.46c-33.84-2.65-54.27,6.66-80.14,18.45C1563.37,508.87,1518.88,529.15,1420.2,529.15Z"/><rect class="cls-4" x="1665.5" y="453.1" width="28.59" height="28.59"/></g></g></svg>